<svg width="498" height="309" viewBox="0 0 498 309" fill="none" xmlns="http://www.w3.org/2000/svg">
<path d="M33.0282 270.291C34.4585 270.291 35.5439 269.774 36.2844 268.729C37.0249 267.684 37.4915 266.132 37.664 264.053V253.828C37.4814 251.749 37.0249 250.186 36.2844 249.152C35.5439 248.107 34.4585 247.59 33.0282 247.59H16.0678V261.801C16.0678 264.631 16.4533 266.761 17.2242 268.171C17.9951 269.591 19.1921 270.291 20.7948 270.291V273.243H0V270.291C1.43028 270.291 2.51566 269.774 3.25615 268.729C3.99665 267.684 4.46327 266.132 4.63571 264.053V221.753C4.45312 219.674 3.99665 218.112 3.25615 217.077C2.51566 216.032 1.43028 215.515 0 215.515V212.563H20.7948V215.515C19.1921 215.515 17.9951 216.225 17.2242 217.635C16.4533 219.055 16.0678 221.175 16.0678 224.005V233.804C16.0678 236.634 16.4533 238.764 17.2242 240.174C17.9951 241.595 19.1921 242.294 20.7948 242.294V242.386H37.664V221.753C37.4814 219.674 37.0249 218.112 36.2844 217.077C35.5439 216.032 34.4585 215.515 33.0282 215.515V212.563H53.8231V215.515C52.2203 215.515 51.0234 216.225 50.2524 217.635C49.4815 219.055 49.096 221.175 49.096 224.005V261.801C49.096 264.631 49.4815 266.761 50.2524 268.171C51.0234 269.591 52.2203 270.291 53.8231 270.291V273.243H33.0282V270.291Z" fill="#DB6F2E"/>
<path d="M77.5601 271.894C73.9286 270.079 71.0478 267.36 68.9074 263.749C66.7671 260.138 65.6614 255.756 65.6006 250.613V221.743C65.418 219.664 64.9615 218.102 64.221 217.067C63.4805 216.022 62.3951 215.505 60.9648 215.505V212.553H77.0326V249.913C77.0326 255.756 78.4122 260.361 81.1814 263.739C83.9507 267.117 87.6836 268.811 92.3802 268.811C97.1377 268.811 100.901 267.178 103.67 263.911C106.44 260.645 107.819 256.212 107.819 250.603V241.067C107.819 236.908 107.758 233.784 107.636 231.705C107.515 229.625 107.18 227.921 106.612 226.592C106.044 225.263 105.111 224.594 103.802 224.594C101.784 224.594 100.11 223.955 98.8012 222.687C97.4927 221.419 96.8333 219.826 96.8333 217.919C96.8333 215.951 97.4825 214.338 98.8012 213.06C100.11 211.792 101.743 211.153 103.711 211.153C105.851 211.153 107.626 211.975 109.026 213.628C110.426 215.272 111.126 217.341 111.126 219.826V250.603C111.126 257.947 109.27 263.779 105.547 268.111C101.824 272.442 96.6102 274.613 89.8848 274.613C85.2897 274.623 81.1916 273.72 77.5601 271.894Z" fill="#DB6F2E"/>
<path d="M127.001 227.292V261.791C127.001 264.621 127.376 266.66 128.117 267.898C128.857 269.146 130.065 269.764 131.728 269.764V273.233H118.967V269.764C120.631 269.764 121.838 269.146 122.578 267.898C123.319 266.66 123.694 264.621 123.694 261.791V219.664C122.923 217.99 122.203 216.874 121.554 216.327C120.895 215.779 120.002 215.505 118.876 215.505V212.553H132.885L153.588 260.402L171.705 212.553H185.714V215.505C184.111 215.505 182.914 216.215 182.143 217.625C181.372 219.045 180.987 221.165 180.987 223.995V261.791C180.987 264.621 181.372 266.752 182.143 268.162C182.914 269.582 184.111 270.282 185.714 270.282V273.233H164.919V270.282C166.349 270.282 167.434 269.764 168.175 268.719C168.915 267.675 169.382 266.123 169.554 264.043V227.201L152.148 273.233H146.437L127.001 227.292Z" fill="#DB6F2E"/>
<path d="M220.353 269.774C221.307 269.774 221.986 269.663 222.402 269.43C222.818 269.196 223.031 268.821 223.031 268.304C223.031 267.786 222.737 266.802 222.139 265.352C220.059 261.71 218.213 258.91 216.6 256.943C214.997 254.975 213.324 253.991 211.599 253.991C211.366 253.991 211.061 254.052 210.706 254.163V261.791C210.706 264.621 211.092 266.752 211.863 268.162C212.634 269.582 213.831 270.282 215.433 270.282V273.233H194.639V270.282C196.069 270.282 197.154 269.764 197.895 268.719C198.635 267.675 199.102 266.123 199.274 264.043V223.478C199.092 221.399 198.635 219.836 197.895 218.802C197.154 217.757 196.069 217.24 194.639 217.24V214.288H199.285C202.257 214.288 205.148 213.71 207.937 212.553H210.706V249.74C211.417 249.223 212.086 248.543 212.715 247.702C213.344 246.86 214.216 245.581 215.352 243.847C216.123 242.579 217.371 240.723 219.106 238.298C221.368 235.001 223.701 232.547 226.115 230.934C228.529 229.321 231.156 228.509 234.017 228.509C236.036 228.509 237.709 229.128 239.018 230.376C240.326 231.624 240.986 233.226 240.986 235.184C240.986 237.152 240.326 238.755 239.018 239.992C237.709 241.24 236.046 241.859 234.017 241.859C232.769 241.859 231.593 241.646 230.487 241.209C229.381 240.773 228.742 240.53 228.57 240.469C226.784 239.718 225.476 239.343 224.644 239.343C223.396 239.343 222.23 240.013 221.165 241.341L215.809 249.142V250.004C217.412 250.004 219.532 250.846 222.149 252.52C224.766 254.194 226.784 255.847 228.215 257.46L234.017 264.043C235.985 266.123 237.679 267.594 239.109 268.466C240.539 269.328 241.97 269.764 243.39 269.764V273.233H220.363V269.774H220.353Z" fill="#E6E7E8"/>
<path d="M282.069 272.159C281.146 271.438 280.568 270.485 280.325 269.298C280.091 268.111 279.97 266.569 279.97 264.662V264.226C278.539 267.29 276.429 269.785 273.63 271.722C270.83 273.66 267.259 274.624 262.918 274.624C258.688 274.624 255.107 273.569 252.165 271.459C249.224 269.349 247.753 266.417 247.753 262.664C247.753 259.895 248.493 257.724 249.985 256.162C251.466 254.6 253.302 253.474 255.472 252.784C257.643 252.094 260.544 251.394 264.176 250.704C267.564 250.065 270.303 249.416 272.392 248.757C274.472 248.097 276.227 247.063 277.657 245.683C279.087 244.304 279.828 242.387 279.889 239.962C279.534 236.899 278.418 234.809 276.541 233.673C274.664 232.547 272.565 231.979 270.252 231.979C267.868 231.979 265.89 232.659 264.318 234.018C262.745 235.377 261.954 237.152 261.954 239.354C261.954 241.494 261.315 243.279 260.037 244.73C258.759 246.17 257.166 246.9 255.259 246.9C253.413 246.9 251.902 246.282 250.705 245.034C249.518 243.796 248.919 242.275 248.919 240.479C248.919 236.899 250.685 234.008 254.235 231.807C257.775 229.615 263.03 228.51 269.988 228.51C276.358 228.51 281.512 229.798 285.468 232.364C289.424 234.941 291.402 239.343 291.402 245.582V261.792C291.402 264.622 291.787 266.752 292.558 268.162C293.329 269.582 294.526 270.282 296.129 270.282V273.234H286.218C284.372 273.244 282.993 272.879 282.069 272.159ZM261.457 266.559C262.979 267.888 264.947 268.558 267.391 268.558C270.485 268.558 272.97 267.847 274.847 266.437C276.724 265.028 278.042 263.344 278.823 261.406C279.594 259.469 279.98 257.612 279.98 255.817V248.361C278.793 249.345 277.424 250.157 275.872 250.786C274.32 251.425 272.271 252.175 269.714 253.038C267.27 253.788 265.373 254.468 264.003 255.076C262.634 255.685 261.488 256.476 260.565 257.46C259.641 258.444 259.185 259.712 259.185 261.274C259.175 263.475 259.936 265.241 261.457 266.559Z" fill="#E6E7E8"/>
<path d="M305.055 268.73C301.9 264.804 300.328 259.255 300.328 252.084C300.328 244.628 301.769 238.836 304.66 234.707C307.54 230.579 311.78 228.509 317.38 228.509C319.642 228.509 321.559 228.854 323.131 229.554C324.704 230.244 326.357 231.228 328.082 232.506C328.913 233.145 329.623 233.632 330.222 233.977C330.82 234.322 331.409 234.494 332.007 234.494C332.778 234.494 333.306 234.149 333.569 233.449C333.833 232.76 333.975 231.573 333.975 229.899V225.74C333.975 222.91 333.59 220.79 332.819 219.37C332.048 217.96 330.851 217.25 329.248 217.25V214.288H333.975C336.947 214.288 339.838 213.71 342.638 212.553H345.407V261.791C345.407 264.621 345.793 266.752 346.564 268.162C347.335 269.582 348.532 270.282 350.134 270.282V273.233H333.965V267.949C330.993 272.402 325.809 274.623 318.435 274.623C312.673 274.623 308.21 272.665 305.055 268.73ZM323.172 269.166C330.374 269.166 333.975 264.51 333.975 255.208V250.877C333.975 240.875 330.374 235.884 323.172 235.884C319.419 235.884 316.599 237.314 314.692 240.175C312.785 243.035 311.831 247.184 311.831 252.611C311.831 263.648 315.615 269.166 323.172 269.166Z" fill="#E6E7E8"/>
<path d="M391.134 272.159C390.211 271.438 389.633 270.485 389.389 269.298C389.156 268.111 389.034 266.569 389.034 264.662V264.226C387.604 267.29 385.494 269.785 382.694 271.722C379.895 273.66 376.324 274.624 371.982 274.624C367.752 274.624 364.172 273.569 361.23 271.459C358.288 269.349 356.817 266.417 356.817 262.664C356.817 259.895 357.558 257.724 359.049 256.162C360.53 254.6 362.366 253.474 364.537 252.784C366.708 252.094 369.609 251.394 373.24 250.704C376.628 250.065 379.367 249.416 381.457 248.757C383.536 248.097 385.291 247.063 386.721 245.683C388.152 244.294 388.892 242.387 388.953 239.962C388.598 236.899 387.482 234.809 385.606 233.673C383.729 232.547 381.629 231.979 379.316 231.979C376.933 231.979 374.955 232.659 373.382 234.018C371.81 235.377 371.019 237.152 371.019 239.354C371.019 241.494 370.38 243.279 369.102 244.73C367.823 246.17 366.231 246.9 364.324 246.9C362.478 246.9 360.966 246.282 359.769 245.034C358.582 243.796 357.984 242.275 357.984 240.479C357.984 236.899 359.749 234.008 363.299 231.807C366.839 229.615 372.094 228.51 379.053 228.51C385.423 228.51 390.576 229.798 394.532 232.364C398.488 234.941 400.466 239.343 400.466 245.582V261.792C400.466 264.622 400.852 266.752 401.623 268.162C402.394 269.582 403.59 270.282 405.193 270.282V273.234H395.283C393.437 273.244 392.057 272.879 391.134 272.159ZM370.512 266.559C372.033 267.888 374.001 268.558 376.446 268.558C379.54 268.558 382.025 267.847 383.901 266.437C385.778 265.028 387.097 263.344 387.868 261.406C388.639 259.469 389.024 257.612 389.024 255.817V248.361C387.837 249.345 386.468 250.157 384.916 250.786C383.364 251.425 381.315 252.175 378.758 253.038C376.314 253.788 374.417 254.468 373.047 255.076C371.678 255.685 370.532 256.476 369.609 257.46C368.686 258.444 368.229 259.712 368.229 261.274C368.239 263.475 369 265.241 370.512 266.559Z" fill="#E6E7E8"/>
<path d="M414.425 268.73C415.165 267.686 415.632 266.134 415.804 264.054V240.825C415.622 238.745 415.165 237.183 414.425 236.148C413.684 235.104 412.599 234.586 411.169 234.586V231.634H415.815C418.787 231.634 421.678 231.056 424.467 229.9H425.806C426.161 231.523 426.729 232.902 427.5 234.059C428.271 235.215 429.164 235.793 430.178 235.793C430.888 235.793 431.578 235.591 432.227 235.185C432.877 234.779 433.769 234.12 434.905 233.186C436.63 231.746 438.263 230.6 439.815 229.758C441.367 228.916 443.264 228.5 445.526 228.5H445.79C446.976 228.5 448.052 228.591 449.005 228.764C451.744 229.281 453.945 230.437 455.609 232.233C456.441 233.095 457.333 234.282 458.287 235.783C458.408 235.905 458.642 236.219 458.997 236.737C459.352 237.254 459.666 237.629 459.93 237.863C460.194 238.096 460.478 238.208 460.782 238.208C461.198 238.208 461.685 237.995 462.253 237.558C462.821 237.122 463.572 236.443 464.525 235.519C466.726 233.44 468.917 231.746 471.088 230.448C473.259 229.149 475.744 228.5 478.544 228.5C483.545 228.5 487.197 230.103 489.52 233.308C491.842 236.514 493.09 241.758 493.273 249.041V261.782C493.273 264.612 493.658 266.742 494.429 268.152C495.2 269.572 496.397 270.272 498 270.272V273.224H477.205V270.272C478.635 270.272 479.721 269.755 480.461 268.71C481.202 267.665 481.668 266.113 481.841 264.034V250.857C481.841 246.353 480.958 243.016 479.203 240.845C477.448 238.674 474.699 237.599 470.946 237.599C467.315 237.599 464.627 238.684 462.872 240.845C461.117 243.016 460.244 246.353 460.244 250.857V261.782C460.244 264.612 460.63 266.742 461.401 268.152C462.172 269.572 463.369 270.272 464.971 270.272V273.224H444.177V270.272C445.607 270.272 446.692 269.755 447.433 268.71C448.173 267.665 448.64 266.113 448.812 264.034V250.857C448.812 246.353 447.92 243.016 446.134 240.845C444.349 238.674 441.61 237.599 437.928 237.599C434.297 237.599 431.609 238.684 429.854 240.845C428.099 243.016 427.216 246.353 427.216 250.857V261.782C427.216 264.612 427.602 266.742 428.373 268.152C429.144 269.572 430.341 270.272 431.943 270.272V273.224H411.148V270.272C412.599 270.292 413.684 269.775 414.425 268.73Z" fill="#E6E7E8"/>
<path d="M33.5158 293.491V294.12L31.5885 294.647L35.22 300.49L38.8717 294.667L37.0256 294.16V293.491H42.0062V294.201L40.1397 294.708L35.6156 301.849V306.424L37.7863 307.012V307.702H31.3755V307.094L33.5462 306.505V301.809L29.1844 294.566L27.7744 294.181V293.491H33.5158Z" fill="#DB6F2E"/>
<path d="M51.8958 308.128C51.3887 308.128 50.8916 308.078 50.4047 307.976C49.9178 307.875 49.4613 307.743 49.015 307.581C48.5585 307.388 48.1325 307.165 47.7267 306.891C47.321 306.617 46.9457 306.323 46.6008 305.998C46.266 305.663 45.9617 305.298 45.6878 304.892C45.4139 304.497 45.1806 304.071 44.9778 303.624C44.785 303.178 44.643 302.711 44.5314 302.225C44.4198 301.738 44.3691 301.241 44.3691 300.723C44.3691 300.206 44.4199 299.709 44.5112 299.212C44.6024 298.715 44.7343 298.248 44.9169 297.802C45.0893 297.345 45.3125 296.909 45.5661 296.503C45.8298 296.098 46.1139 295.733 46.4385 295.388C46.7631 295.033 47.1181 294.728 47.5036 294.454C47.889 294.181 48.3049 293.947 48.731 293.744C49.1773 293.552 49.6338 293.41 50.1308 293.298C50.6177 293.186 51.1249 293.136 51.6524 293.136C52.1799 293.136 52.687 293.186 53.1841 293.288C53.6811 293.389 54.1478 293.531 54.5941 293.724C55.0404 293.897 55.4563 294.12 55.8621 294.394C56.2678 294.667 56.6229 294.962 56.9475 295.286C57.2822 295.621 57.5764 295.986 57.8401 296.382C58.1039 296.777 58.327 297.193 58.5096 297.64C58.6922 298.076 58.8342 298.532 58.9356 299.019C59.0269 299.506 59.0777 300.013 59.0777 300.541C59.0777 301.058 59.0269 301.555 58.9356 302.052C58.8444 302.549 58.7125 303.016 58.5299 303.462C58.3372 303.919 58.1241 304.355 57.8705 304.761C57.617 305.166 57.3329 305.542 57.0083 305.897C56.6837 306.252 56.3388 306.566 55.9534 306.84C55.5679 307.114 55.1621 307.347 54.7361 307.54C54.3101 307.733 53.8536 307.875 53.3768 307.976C52.9001 308.078 52.403 308.128 51.8958 308.128ZM51.6524 307.104C52.0683 307.104 52.4537 307.063 52.8189 306.972C53.1841 306.881 53.5188 306.749 53.8232 306.576C54.1275 306.404 54.4217 306.191 54.6854 305.947C54.9491 305.704 55.1824 305.43 55.3853 305.116C55.5983 304.821 55.7911 304.497 55.9432 304.132C56.1055 303.777 56.2374 303.401 56.349 303.016C56.4606 302.63 56.5316 302.235 56.5924 301.809C56.6431 301.393 56.6736 300.967 56.6736 300.531C56.6736 300.115 56.6431 299.699 56.5924 299.283C56.5417 298.867 56.4606 298.482 56.3591 298.096C56.2577 297.721 56.1258 297.356 55.9635 297.011C55.8012 296.666 55.6186 296.351 55.4259 296.067C55.223 295.783 54.9998 295.52 54.7463 295.286C54.4927 295.053 54.2188 294.85 53.9246 294.688C53.6304 294.525 53.316 294.404 52.9711 294.323C52.6262 294.241 52.261 294.201 51.8756 294.201C51.1249 294.211 50.4453 294.373 49.8265 294.678C49.2077 294.982 48.6904 295.398 48.2644 295.946C47.818 296.473 47.4833 297.102 47.25 297.832C47.0167 298.563 46.8949 299.374 46.8949 300.247C46.8949 300.683 46.9152 301.109 46.966 301.545C47.0167 301.981 47.0877 302.387 47.1891 302.793C47.2906 303.188 47.4123 303.574 47.5543 303.939C47.6963 304.304 47.8688 304.639 48.0615 304.953C48.2441 305.278 48.4672 305.572 48.7107 305.826C48.9541 306.079 49.228 306.302 49.5323 306.485C49.8366 306.668 50.1613 306.81 50.5163 306.911C50.8713 307.033 51.2568 307.083 51.6524 307.104Z" fill="#DB6F2E"/>
<path d="M67.8832 293.491V294.12L65.8545 294.688V303.99C65.8545 304.233 65.895 304.476 65.966 304.73C66.037 304.984 66.1385 305.217 66.2805 305.45C66.4124 305.684 66.5747 305.886 66.7573 306.059C66.9398 306.231 67.1326 306.373 67.3456 306.465C67.7311 306.627 68.1368 306.749 68.5629 306.83C68.9889 306.911 69.4048 306.962 69.841 306.972C70.267 306.972 70.6931 306.931 71.1191 306.85C71.5451 306.769 71.9407 306.637 72.3161 306.465C72.5697 306.353 72.7928 306.191 72.9754 305.968C73.158 305.744 73.3203 305.501 73.442 305.247C73.5739 304.963 73.6753 304.679 73.7362 304.395C73.7971 304.111 73.8275 303.848 73.8275 303.584V294.667L71.8393 294.14V293.552H76.8199V294.201L74.994 294.688V304.416C74.994 304.781 74.9332 305.116 74.8114 305.42C74.6897 305.724 74.5274 305.998 74.3245 306.241C74.1724 306.434 74.0101 306.607 73.8275 306.769C73.6449 306.931 73.4623 307.094 73.2797 307.256C73.1276 307.367 72.9754 307.459 72.7928 307.53C72.6204 307.601 72.4378 307.662 72.2654 307.712C72.0929 307.763 71.9002 307.794 71.7176 307.824C71.535 307.854 71.3423 307.875 71.1597 307.905C70.8959 307.946 70.622 307.976 70.338 307.996C70.054 308.017 69.7801 308.017 69.4961 308.007C69.2425 308.007 68.9889 307.996 68.7454 307.976C68.502 307.956 68.2484 307.936 68.0151 307.905C67.6499 307.865 67.2949 307.794 66.9399 307.702C66.5848 307.611 66.2501 307.469 65.9457 307.296C65.7632 307.185 65.5806 307.073 65.4081 306.941C65.2357 306.81 65.0835 306.678 64.9314 306.546C64.7792 306.414 64.6473 306.272 64.5256 306.12C64.4039 305.968 64.3024 305.815 64.201 305.653C64.0793 305.42 63.988 305.187 63.917 304.933C63.846 304.679 63.8156 304.416 63.8156 304.132V294.667L61.8477 294.14V293.491H67.8832Z" fill="#DB6F2E"/>
<path d="M88.2111 293.572C88.2212 293.572 88.2719 293.572 88.3429 293.572C88.4139 293.572 88.5053 293.582 88.6067 293.592C88.7081 293.602 88.8197 293.622 88.9617 293.633C89.0936 293.643 89.2356 293.663 89.3878 293.693C89.5399 293.724 89.6819 293.744 89.8442 293.775C89.9964 293.805 90.1486 293.836 90.2906 293.886C90.4326 293.937 90.5645 293.978 90.7065 294.028C90.8383 294.079 90.9499 294.13 91.0514 294.201C91.2339 294.312 91.4165 294.444 91.589 294.596C91.7614 294.748 91.9237 294.921 92.0657 295.093C92.2077 295.266 92.3295 295.459 92.4309 295.661C92.5323 295.864 92.6033 296.077 92.6439 296.29C92.6845 296.564 92.7048 296.838 92.7048 297.132C92.7048 297.426 92.6743 297.71 92.6236 297.994C92.5729 298.278 92.4918 298.552 92.3802 298.816C92.2686 299.08 92.1367 299.323 91.9541 299.536C91.7817 299.739 91.5788 299.912 91.3557 300.064C91.1325 300.216 90.8789 300.338 90.6253 300.439C90.3616 300.541 90.0978 300.622 89.8239 300.683C89.55 300.743 89.2762 300.804 89.0124 300.855L93.1308 306.698L94.6625 307.124V307.733H91.2441L86.6286 301.078H83.7985V306.596L85.7259 307.124V307.733H79.7816V307.144L81.7495 306.617V294.901L79.7207 294.353V293.582H88.2111V293.572ZM87.4097 300.165C87.6633 300.165 87.927 300.135 88.2111 300.074C88.4951 300.013 88.7589 299.922 89.0226 299.81C89.2863 299.699 89.5196 299.546 89.7225 299.374C89.9254 299.202 90.0978 298.999 90.2196 298.765C90.2906 298.634 90.3514 298.481 90.4123 298.329C90.4731 298.177 90.5239 298.015 90.5644 297.863C90.605 297.71 90.6354 297.548 90.6557 297.376C90.676 297.203 90.676 297.041 90.6659 296.869C90.6557 296.696 90.6253 296.534 90.5746 296.371C90.5239 296.209 90.463 296.047 90.3717 295.895C90.2804 295.743 90.1688 295.59 90.0268 295.448C89.8848 295.306 89.7225 295.174 89.5298 295.053C89.195 294.84 88.84 294.677 88.4545 294.576C88.0691 294.475 87.6836 294.414 87.2779 294.383C86.8721 294.353 86.4765 294.353 86.0707 294.373C85.665 294.393 85.2694 294.434 84.8839 294.505C84.7216 294.515 84.5695 294.556 84.4274 294.617C84.2854 294.677 84.1637 294.748 84.0623 294.83C83.9608 294.911 83.8797 295.002 83.8289 295.114C83.7782 295.225 83.7478 295.337 83.7478 295.459V300.155H87.4097V300.165Z" fill="#DB6F2E"/>
<path d="M112.678 293.633C112.942 293.633 113.216 293.643 113.49 293.673C113.764 293.704 114.028 293.744 114.281 293.815C114.545 293.866 114.809 293.947 115.062 294.049C115.316 294.15 115.559 294.272 115.782 294.404C115.945 294.485 116.097 294.586 116.249 294.718C116.401 294.85 116.533 294.982 116.675 295.134C116.807 295.296 116.929 295.479 117.05 295.672C117.162 295.864 117.253 296.067 117.324 296.27C117.395 296.463 117.436 296.666 117.456 296.879C117.476 297.092 117.487 297.315 117.487 297.528C117.487 297.741 117.466 297.964 117.436 298.177C117.405 298.39 117.365 298.603 117.324 298.806C117.284 298.958 117.233 299.1 117.182 299.242C117.132 299.384 117.061 299.516 116.979 299.638C116.898 299.77 116.807 299.892 116.706 300.003C116.604 300.115 116.493 300.206 116.371 300.287C116.158 300.419 115.945 300.561 115.732 300.703C115.519 300.845 115.296 300.967 115.072 301.078C114.768 301.231 114.454 301.342 114.129 301.423C113.804 301.504 113.49 301.545 113.165 301.545H109.372V306.505L111.502 307.094V307.743H105.537V307.134L107.262 306.668V294.769L105.456 294.282V293.653H112.678V293.633ZM112.516 300.754C112.78 300.754 113.054 300.713 113.338 300.642C113.622 300.571 113.875 300.449 114.119 300.287C114.362 300.125 114.575 299.922 114.748 299.679C114.93 299.435 115.062 299.141 115.164 298.786C115.235 298.553 115.285 298.309 115.326 298.035C115.367 297.761 115.377 297.498 115.356 297.234C115.336 296.97 115.296 296.717 115.225 296.463C115.154 296.209 115.052 295.986 114.92 295.783C114.788 295.611 114.626 295.438 114.443 295.286C114.261 295.134 114.068 294.992 113.855 294.881C113.642 294.769 113.419 294.667 113.206 294.596C112.983 294.525 112.77 294.475 112.577 294.444C112.394 294.434 112.202 294.414 112.029 294.394C111.847 294.373 111.664 294.363 111.481 294.363C111.299 294.363 111.106 294.373 110.934 294.383C110.751 294.394 110.569 294.434 110.386 294.485C110.295 294.515 110.183 294.546 110.072 294.596C109.96 294.647 109.848 294.698 109.747 294.759C109.645 294.82 109.564 294.891 109.493 294.982C109.422 295.073 109.392 295.175 109.392 295.296V300.733H112.516V300.754Z" fill="#DB6F2E"/>
<path d="M127.62 293.593L132.723 306.658L134.325 307.084V307.713H128.604V307.043L130.43 306.557L128.827 302.428H123.603L122.173 306.496L124.364 307.084V307.713H118.917V307.104L120.641 306.638L125.703 293.593H127.62ZM126.15 295.429L123.918 301.495H128.503L126.15 295.429Z" fill="#DB6F2E"/>
<path d="M145.695 293.572C145.706 293.572 145.756 293.572 145.827 293.572C145.898 293.572 145.99 293.582 146.091 293.592C146.192 293.602 146.304 293.622 146.446 293.633C146.578 293.643 146.72 293.663 146.872 293.693C147.014 293.724 147.166 293.744 147.329 293.775C147.491 293.805 147.633 293.836 147.775 293.886C147.917 293.937 148.049 293.978 148.191 294.028C148.323 294.079 148.434 294.13 148.536 294.201C148.718 294.312 148.901 294.444 149.073 294.596C149.246 294.748 149.408 294.921 149.55 295.093C149.692 295.266 149.814 295.459 149.915 295.661C150.017 295.864 150.088 296.077 150.128 296.29C150.169 296.564 150.189 296.838 150.189 297.132C150.189 297.426 150.159 297.71 150.108 297.994C150.057 298.278 149.976 298.552 149.865 298.816C149.753 299.08 149.621 299.323 149.439 299.536C149.266 299.739 149.063 299.912 148.84 300.064C148.617 300.216 148.363 300.338 148.11 300.439C147.846 300.541 147.582 300.622 147.308 300.683C147.034 300.743 146.761 300.804 146.497 300.855L150.615 306.698L152.147 307.124V307.733H148.728L144.113 301.078H141.283V306.596L143.21 307.124V307.733H137.266V307.144L139.234 306.617V294.901L137.205 294.353V293.582H145.695V293.572ZM144.884 300.165C145.138 300.165 145.411 300.135 145.685 300.074C145.969 300.013 146.233 299.922 146.497 299.81C146.761 299.699 146.994 299.546 147.197 299.374C147.4 299.202 147.572 298.999 147.694 298.765C147.765 298.634 147.826 298.481 147.887 298.329C147.947 298.177 147.998 298.015 148.039 297.863C148.079 297.71 148.11 297.548 148.13 297.376C148.15 297.203 148.15 297.041 148.14 296.869C148.13 296.696 148.1 296.534 148.049 296.371C147.998 296.209 147.937 296.047 147.846 295.895C147.755 295.743 147.643 295.59 147.501 295.448C147.359 295.306 147.197 295.174 147.004 295.053C146.669 294.84 146.314 294.677 145.929 294.576C145.543 294.475 145.158 294.414 144.752 294.383C144.346 294.353 143.951 294.353 143.545 294.373C143.139 294.393 142.744 294.434 142.358 294.505C142.196 294.515 142.044 294.556 141.902 294.617C141.76 294.677 141.638 294.748 141.536 294.83C141.435 294.911 141.354 295.002 141.303 295.114C141.252 295.225 141.222 295.337 141.222 295.459V300.155H144.884V300.165Z" fill="#DB6F2E"/>
<path d="M166.704 293.551L167.83 297.192L167.11 297.416C166.958 297.162 166.796 296.898 166.613 296.634C166.431 296.371 166.238 296.127 166.025 295.894C165.812 295.661 165.579 295.458 165.325 295.265C165.071 295.072 164.808 294.91 164.524 294.778C164.26 294.656 163.976 294.555 163.682 294.484C163.387 294.413 163.073 294.362 162.738 294.352C162.576 294.352 162.434 294.362 162.312 294.383C162.191 294.403 162.089 294.443 162.008 294.504C161.927 294.565 161.866 294.646 161.825 294.748C161.785 294.849 161.764 294.981 161.764 295.143V306.454L163.996 307.042V307.691H157.646V307.062L159.715 306.494V295.184C159.715 295.032 159.695 294.91 159.655 294.798C159.614 294.687 159.563 294.606 159.492 294.545C159.421 294.484 159.35 294.433 159.259 294.403C159.168 294.372 159.076 294.352 158.985 294.352C158.691 294.352 158.407 294.372 158.123 294.423C157.839 294.474 157.565 294.545 157.301 294.636C156.926 294.788 156.571 294.971 156.236 295.204C155.901 295.438 155.597 295.691 155.333 295.975C155.13 296.208 154.948 296.442 154.796 296.695C154.633 296.949 154.512 297.203 154.41 297.476L153.649 297.233L154.836 293.551H166.704Z" fill="#DB6F2E"/>
<path d="M174.991 293.572L181.818 304.781V294.748L179.789 294.201V293.612H184.79V294.241L182.985 294.748V307.753H181.139L173.48 295.215V306.546L175.529 307.114V307.722H170.508V307.114L172.334 306.627V294.748L170.508 294.241V293.572H174.991Z" fill="#DB6F2E"/>
<path d="M199.418 293.572L200.767 297.335L200.148 297.518C199.946 297.244 199.722 296.99 199.489 296.747C199.246 296.503 198.992 296.27 198.728 296.057C198.465 295.854 198.18 295.661 197.886 295.489C197.592 295.316 197.288 295.154 196.984 295.022C196.618 294.86 196.243 294.728 195.847 294.627C195.452 294.525 195.056 294.464 194.65 294.434C194.326 294.404 194.011 294.404 193.697 294.414C193.382 294.424 193.068 294.464 192.764 294.515C192.591 294.556 192.429 294.627 192.277 294.718C192.135 294.809 192.013 294.931 191.912 295.063C191.82 295.185 191.739 295.327 191.688 295.479C191.638 295.631 191.607 295.793 191.607 295.956V299.658H194.985L195.604 297.051H196.365V303.239H195.665L194.965 300.632H191.607V305.126C191.607 305.288 191.638 305.45 191.709 305.623C191.78 305.795 191.861 305.947 191.952 306.079C192.064 306.231 192.185 306.353 192.338 306.454C192.48 306.556 192.642 306.617 192.804 306.647C193.129 306.698 193.443 306.738 193.758 306.769C194.072 306.799 194.387 306.799 194.711 306.789C195.117 306.759 195.513 306.698 195.918 306.607C196.324 306.515 196.72 306.373 197.105 306.201C197.47 306.039 197.836 305.825 198.201 305.572C198.566 305.318 198.931 305.014 199.296 304.679C199.55 304.436 199.803 304.172 200.047 303.888C200.29 303.604 200.544 303.3 200.777 302.975L201.457 303.239L199.611 307.692H187.763V307.063L189.508 306.596V294.708L187.682 294.201V293.572H199.418Z" fill="#DB6F2E"/>
<path d="M212.799 293.572C212.809 293.572 212.86 293.572 212.931 293.572C213.002 293.572 213.093 293.582 213.195 293.592C213.296 293.602 213.408 293.622 213.55 293.633C213.681 293.643 213.823 293.663 213.976 293.693C214.118 293.724 214.27 293.744 214.432 293.775C214.594 293.805 214.736 293.836 214.878 293.886C215.02 293.937 215.152 293.978 215.294 294.028C215.426 294.079 215.538 294.13 215.639 294.201C215.822 294.312 216.004 294.444 216.177 294.596C216.349 294.748 216.512 294.921 216.654 295.093C216.796 295.266 216.917 295.459 217.019 295.661C217.12 295.864 217.191 296.077 217.232 296.29C217.272 296.564 217.293 296.838 217.293 297.132C217.293 297.426 217.262 297.71 217.212 297.994C217.161 298.278 217.08 298.552 216.968 298.816C216.856 299.08 216.725 299.323 216.542 299.536C216.37 299.739 216.167 299.912 215.944 300.064C215.72 300.216 215.467 300.338 215.213 300.439C214.949 300.541 214.686 300.622 214.412 300.683C214.138 300.743 213.864 300.804 213.6 300.855L217.719 306.698L219.25 307.124V307.733H215.832L211.217 301.078H208.386V306.596L210.314 307.124V307.733H204.369V307.144L206.337 306.617V294.901L204.309 294.353V293.582H212.799V293.572ZM211.998 300.165C212.251 300.165 212.515 300.135 212.799 300.074C213.083 300.013 213.347 299.922 213.61 299.81C213.874 299.699 214.107 299.546 214.31 299.374C214.513 299.202 214.686 298.999 214.807 298.765C214.878 298.634 214.939 298.481 215 298.329C215.061 298.177 215.112 298.015 215.152 297.863C215.193 297.71 215.223 297.548 215.244 297.376C215.264 297.203 215.264 297.041 215.254 296.869C215.244 296.696 215.213 296.534 215.162 296.371C215.112 296.209 215.051 296.047 214.96 295.895C214.868 295.743 214.757 295.59 214.615 295.448C214.473 295.306 214.31 295.174 214.118 295.053C213.783 294.84 213.428 294.677 213.042 294.576C212.657 294.475 212.271 294.414 211.866 294.383C211.46 294.353 211.064 294.353 210.659 294.373C210.253 294.393 209.857 294.434 209.472 294.505C209.309 294.515 209.157 294.556 209.015 294.617C208.873 294.677 208.752 294.748 208.65 294.83C208.549 294.911 208.468 295.002 208.417 295.114C208.366 295.225 208.336 295.337 208.336 295.459V300.155H211.998V300.165Z" fill="#DB6F2E"/>
<path d="M235.652 293.572V294.16L233.867 294.647V306.627L235.612 307.114V307.722H230.104V307.073L231.767 306.627V294.637L230.043 294.17V293.582H235.652V293.572Z" fill="#DB6F2E"/>
<path d="M243.016 293.572L249.843 304.781V294.748L247.814 294.201V293.612H252.815V294.241L251.009 294.748V307.753H249.163L241.504 295.215V306.546L243.553 307.114V307.722H238.532V307.114L240.358 306.627V294.748L238.532 294.241V293.572H243.016Z" fill="#DB6F2E"/>
<path d="M268.183 293.491V294.12L266.255 294.647L269.887 300.49L273.539 294.667L271.693 294.16V293.491H276.673V294.201L274.807 294.708L270.283 301.849V306.424L272.453 307.012V307.702H266.042V307.094L268.213 306.505V301.809L263.851 294.566L262.441 294.181V293.491H268.183Z" fill="#DB6F2E"/>
<path d="M286.564 308.128C286.057 308.128 285.56 308.078 285.073 307.976C284.586 307.875 284.129 307.743 283.683 307.581C283.227 307.388 282.8 307.165 282.395 306.891C281.989 306.617 281.614 306.323 281.269 305.998C280.934 305.663 280.63 305.298 280.356 304.892C280.082 304.497 279.849 304.071 279.646 303.624C279.453 303.178 279.311 302.711 279.199 302.225C279.088 301.738 279.037 301.241 279.037 300.723C279.037 300.206 279.088 299.709 279.179 299.212C279.27 298.715 279.402 298.248 279.585 297.802C279.757 297.345 279.981 296.909 280.234 296.503C280.498 296.098 280.782 295.733 281.106 295.388C281.431 295.033 281.786 294.728 282.172 294.454C282.557 294.181 282.973 293.947 283.399 293.744C283.845 293.552 284.302 293.41 284.799 293.298C285.286 293.186 285.793 293.136 286.32 293.136C286.838 293.136 287.355 293.186 287.852 293.288C288.349 293.389 288.816 293.531 289.262 293.724C289.708 293.897 290.124 294.12 290.53 294.394C290.936 294.667 291.291 294.962 291.615 295.286C291.95 295.621 292.244 295.986 292.508 296.382C292.772 296.777 292.995 297.193 293.178 297.64C293.36 298.076 293.502 298.532 293.604 299.019C293.695 299.506 293.746 300.013 293.746 300.541C293.746 301.058 293.695 301.555 293.604 302.052C293.512 302.549 293.38 303.016 293.198 303.462C293.005 303.919 292.792 304.355 292.539 304.761C292.285 305.166 292.001 305.542 291.676 305.897C291.352 306.252 291.007 306.566 290.621 306.84C290.236 307.114 289.83 307.347 289.404 307.54C288.978 307.733 288.522 307.875 288.045 307.976C287.558 308.078 287.071 308.128 286.564 308.128ZM286.32 307.104C286.736 307.104 287.122 307.063 287.487 306.972C287.852 306.881 288.187 306.749 288.491 306.576C288.795 306.404 289.09 306.191 289.353 305.947C289.617 305.704 289.85 305.43 290.053 305.116C290.266 304.821 290.459 304.497 290.611 304.132C290.773 303.777 290.905 303.401 291.017 303.016C291.129 302.63 291.2 302.235 291.26 301.809C291.311 301.393 291.342 300.967 291.342 300.531C291.342 300.115 291.311 299.699 291.26 299.283C291.21 298.867 291.129 298.482 291.027 298.096C290.926 297.721 290.794 297.356 290.632 297.011C290.469 296.666 290.287 296.351 290.094 296.067C289.891 295.783 289.668 295.52 289.414 295.286C289.161 295.053 288.887 294.85 288.593 294.688C288.298 294.525 287.984 294.404 287.639 294.323C287.294 294.241 286.929 294.201 286.544 294.201C285.793 294.211 285.113 294.373 284.494 294.678C283.876 294.982 283.358 295.398 282.932 295.946C282.486 296.473 282.151 297.102 281.918 297.832C281.685 298.563 281.563 299.374 281.563 300.247C281.563 300.683 281.583 301.109 281.634 301.545C281.685 301.981 281.756 302.387 281.857 302.793C281.959 303.188 282.08 303.574 282.222 303.939C282.364 304.304 282.537 304.639 282.729 304.953C282.912 305.278 283.135 305.572 283.379 305.826C283.622 306.079 283.896 306.302 284.2 306.485C284.505 306.668 284.829 306.81 285.184 306.911C285.539 307.033 285.915 307.083 286.32 307.104Z" fill="#DB6F2E"/>
<path d="M302.55 293.491V294.12L300.521 294.688V303.99C300.521 304.233 300.562 304.476 300.633 304.73C300.704 304.984 300.805 305.217 300.947 305.45C301.079 305.684 301.242 305.886 301.424 306.059C301.607 306.231 301.8 306.373 302.013 306.465C302.398 306.627 302.804 306.749 303.23 306.83C303.656 306.911 304.072 306.962 304.508 306.972C304.934 306.972 305.36 306.931 305.786 306.85C306.212 306.769 306.608 306.637 306.983 306.465C307.237 306.353 307.46 306.191 307.642 305.968C307.825 305.744 307.987 305.501 308.109 305.247C308.241 304.963 308.342 304.679 308.403 304.395C308.464 304.111 308.494 303.848 308.494 303.584V294.667L306.506 294.14V293.552H311.487V294.201L309.661 294.688V304.416C309.661 304.781 309.6 305.116 309.478 305.42C309.357 305.724 309.194 305.998 308.992 306.241C308.839 306.434 308.677 306.607 308.494 306.769C308.312 306.931 308.129 307.094 307.947 307.256C307.795 307.367 307.642 307.459 307.46 307.53C307.287 307.601 307.105 307.662 306.932 307.712C306.76 307.763 306.567 307.794 306.385 307.824C306.202 307.854 306.009 307.875 305.827 307.905C305.563 307.946 305.289 307.976 305.005 307.996C304.721 308.017 304.447 308.017 304.163 308.007C303.909 308.007 303.656 307.996 303.412 307.976C303.169 307.956 302.915 307.936 302.682 307.905C302.317 307.865 301.962 307.794 301.607 307.702C301.252 307.611 300.917 307.469 300.613 307.296C300.43 307.185 300.248 307.073 300.075 306.941C299.903 306.81 299.751 306.678 299.598 306.546C299.446 306.414 299.314 306.272 299.193 306.12C299.071 305.968 298.969 305.815 298.868 305.653C298.746 305.42 298.655 305.187 298.584 304.933C298.513 304.679 298.483 304.416 298.483 304.132V294.667L296.515 294.14V293.491H302.55Z" fill="#DB6F2E"/>
<path d="M322.877 293.572C322.887 293.572 322.938 293.572 323.009 293.572C323.08 293.572 323.171 293.582 323.273 293.592C323.374 293.602 323.486 293.622 323.628 293.633C323.76 293.643 323.902 293.663 324.054 293.693C324.206 293.724 324.348 293.744 324.51 293.775C324.673 293.805 324.815 293.836 324.957 293.886C325.099 293.937 325.23 293.978 325.372 294.028C325.504 294.079 325.616 294.13 325.717 294.201C325.9 294.312 326.083 294.444 326.255 294.596C326.427 294.748 326.59 294.921 326.732 295.093C326.874 295.266 326.995 295.459 327.097 295.661C327.198 295.864 327.269 296.077 327.31 296.29C327.351 296.564 327.371 296.838 327.371 297.132C327.371 297.426 327.34 297.71 327.29 297.994C327.239 298.278 327.158 298.552 327.046 298.816C326.935 299.08 326.803 299.323 326.62 299.536C326.448 299.739 326.245 299.912 326.022 300.064C325.799 300.216 325.545 300.338 325.291 300.439C325.028 300.541 324.764 300.622 324.49 300.683C324.216 300.743 323.942 300.804 323.678 300.855L327.797 306.698L329.329 307.124V307.733H325.91L321.295 301.078H318.465V306.596L320.392 307.124V307.733H314.448V307.144L316.415 306.617V294.901L314.387 294.353V293.582H322.877V293.572ZM322.066 300.165C322.319 300.165 322.583 300.135 322.867 300.074C323.151 300.013 323.415 299.922 323.678 299.81C323.942 299.699 324.176 299.546 324.378 299.374C324.581 299.202 324.754 298.999 324.875 298.765C324.946 298.634 325.007 298.481 325.068 298.329C325.129 298.177 325.18 298.015 325.22 297.863C325.261 297.71 325.291 297.548 325.312 297.376C325.332 297.203 325.332 297.041 325.322 296.869C325.312 296.696 325.281 296.534 325.23 296.371C325.18 296.209 325.119 296.047 325.028 295.895C324.936 295.743 324.825 295.59 324.683 295.448C324.541 295.306 324.378 295.174 324.186 295.053C323.851 294.84 323.496 294.677 323.11 294.576C322.725 294.475 322.339 294.414 321.934 294.383C321.528 294.353 321.132 294.353 320.727 294.373C320.321 294.393 319.925 294.434 319.54 294.505C319.377 294.515 319.225 294.556 319.083 294.617C318.941 294.677 318.82 294.748 318.718 294.83C318.617 294.911 318.536 295.002 318.485 295.114C318.434 295.225 318.404 295.337 318.404 295.459V300.155H322.066V300.165Z" fill="#DB6F2E"/>
<path d="M347.335 293.633C347.598 293.633 347.872 293.643 348.146 293.673C348.42 293.704 348.684 293.744 348.937 293.815C349.201 293.866 349.465 293.947 349.718 294.049C349.972 294.15 350.216 294.272 350.439 294.404C350.601 294.485 350.753 294.586 350.905 294.718C351.057 294.85 351.189 294.982 351.331 295.134C351.463 295.296 351.585 295.479 351.707 295.672C351.818 295.864 351.91 296.067 351.981 296.27C352.052 296.463 352.092 296.666 352.112 296.879C352.133 297.092 352.143 297.315 352.143 297.528C352.143 297.741 352.123 297.964 352.092 298.177C352.062 298.39 352.021 298.603 351.981 298.806C351.94 298.958 351.889 299.1 351.839 299.242C351.788 299.384 351.717 299.516 351.636 299.638C351.555 299.77 351.463 299.892 351.362 300.003C351.26 300.115 351.149 300.206 351.027 300.287C350.814 300.419 350.601 300.561 350.388 300.703C350.175 300.845 349.952 300.967 349.729 301.078C349.424 301.231 349.11 301.342 348.785 301.423C348.461 301.504 348.146 301.545 347.822 301.545H344.028V306.505L346.158 307.094V307.743H340.193V307.134L341.918 306.668V294.769L340.112 294.282V293.653H347.335V293.633ZM347.172 300.754C347.436 300.754 347.71 300.713 347.994 300.642C348.278 300.571 348.532 300.449 348.775 300.287C349.019 300.125 349.232 299.922 349.404 299.679C349.587 299.435 349.718 299.141 349.82 298.786C349.891 298.553 349.942 298.309 349.982 298.035C350.023 297.761 350.033 297.498 350.013 297.234C349.992 296.97 349.952 296.717 349.881 296.463C349.81 296.209 349.708 295.986 349.576 295.783C349.445 295.611 349.282 295.438 349.1 295.286C348.917 295.134 348.724 294.992 348.511 294.881C348.298 294.769 348.075 294.667 347.862 294.596C347.639 294.525 347.426 294.475 347.233 294.444C347.051 294.434 346.858 294.414 346.685 294.394C346.503 294.373 346.32 294.363 346.138 294.363C345.955 294.363 345.762 294.373 345.59 294.383C345.407 294.394 345.225 294.434 345.042 294.485C344.951 294.515 344.839 294.546 344.728 294.596C344.616 294.647 344.505 294.698 344.403 294.759C344.302 294.82 344.221 294.891 344.15 294.982C344.079 295.073 344.048 295.175 344.048 295.296V300.733H347.172V300.754Z" fill="#DB6F2E"/>
<path d="M363.402 293.572C363.413 293.572 363.463 293.572 363.534 293.572C363.605 293.572 363.697 293.582 363.798 293.592C363.9 293.602 364.011 293.622 364.153 293.633C364.285 293.643 364.427 293.663 364.579 293.693C364.731 293.724 364.873 293.744 365.036 293.775C365.188 293.805 365.34 293.836 365.482 293.886C365.624 293.937 365.756 293.978 365.898 294.028C366.03 294.079 366.141 294.13 366.243 294.201C366.425 294.312 366.608 294.444 366.78 294.596C366.953 294.748 367.115 294.921 367.257 295.093C367.399 295.266 367.521 295.459 367.622 295.661C367.724 295.864 367.795 296.077 367.835 296.29C367.876 296.564 367.896 296.838 367.896 297.132C367.896 297.426 367.866 297.71 367.815 297.994C367.764 298.278 367.683 298.552 367.572 298.816C367.46 299.08 367.328 299.323 367.146 299.536C366.973 299.739 366.77 299.912 366.547 300.064C366.324 300.216 366.07 300.338 365.817 300.439C365.553 300.541 365.289 300.622 365.015 300.683C364.741 300.743 364.468 300.804 364.204 300.855L368.322 306.698L369.854 307.124V307.733H366.436L361.82 301.078H358.99V306.596L360.917 307.124V307.733H354.973V307.144L356.941 306.617V294.901L354.912 294.353V293.582H363.402V293.572ZM362.601 300.165C362.855 300.165 363.129 300.135 363.402 300.074C363.686 300.013 363.95 299.922 364.214 299.81C364.478 299.699 364.711 299.546 364.914 299.374C365.117 299.202 365.289 298.999 365.411 298.765C365.482 298.634 365.543 298.481 365.604 298.329C365.665 298.177 365.715 298.015 365.756 297.863C365.796 297.71 365.827 297.548 365.847 297.376C365.867 297.203 365.867 297.041 365.857 296.869C365.847 296.696 365.817 296.534 365.766 296.371C365.715 296.209 365.654 296.047 365.563 295.895C365.472 295.743 365.36 295.59 365.218 295.448C365.076 295.306 364.914 295.174 364.721 295.053C364.386 294.84 364.031 294.677 363.646 294.576C363.261 294.475 362.875 294.414 362.469 294.383C362.064 294.353 361.668 294.353 361.262 294.373C360.856 294.393 360.461 294.434 360.075 294.505C359.913 294.515 359.761 294.556 359.619 294.617C359.477 294.677 359.355 294.748 359.254 294.83C359.152 294.911 359.071 295.002 359.02 295.114C358.97 295.225 358.939 295.337 358.939 295.459V300.155H362.601V300.165Z" fill="#DB6F2E"/>
<path d="M380.413 308.128C379.906 308.128 379.409 308.078 378.922 307.976C378.435 307.875 377.979 307.743 377.533 307.581C377.076 307.388 376.65 307.165 376.244 306.891C375.839 306.617 375.463 306.323 375.118 305.998C374.784 305.663 374.479 305.298 374.205 304.892C373.932 304.497 373.698 304.071 373.495 303.624C373.303 303.178 373.161 302.711 373.049 302.225C372.937 301.738 372.887 301.241 372.887 300.723C372.887 300.206 372.937 299.709 373.029 299.212C373.12 298.715 373.252 298.248 373.434 297.802C373.607 297.345 373.83 296.909 374.084 296.503C374.347 296.098 374.631 295.733 374.956 295.388C375.281 295.033 375.636 294.728 376.021 294.454C376.407 294.181 376.823 293.947 377.249 293.744C377.695 293.552 378.151 293.41 378.648 293.298C379.135 293.186 379.642 293.136 380.17 293.136C380.697 293.136 381.205 293.186 381.702 293.288C382.199 293.389 382.665 293.531 383.112 293.724C383.558 293.897 383.974 294.12 384.38 294.394C384.785 294.667 385.14 294.962 385.465 295.286C385.8 295.621 386.094 295.986 386.358 296.382C386.621 296.777 386.845 297.193 387.027 297.64C387.21 298.076 387.352 298.532 387.453 299.019C387.545 299.506 387.595 300.013 387.595 300.541C387.595 301.058 387.545 301.555 387.453 302.052C387.362 302.549 387.23 303.016 387.047 303.462C386.855 303.919 386.642 304.355 386.388 304.761C386.135 305.166 385.851 305.542 385.526 305.897C385.201 306.252 384.856 306.566 384.471 306.84C384.085 307.114 383.68 307.347 383.254 307.54C382.828 307.733 382.371 307.875 381.894 307.976C381.418 308.078 380.921 308.128 380.413 308.128ZM380.17 307.104C380.586 307.104 380.971 307.063 381.337 306.972C381.702 306.881 382.036 306.749 382.341 306.576C382.645 306.404 382.939 306.191 383.203 305.947C383.467 305.704 383.7 305.43 383.903 305.116C384.116 304.821 384.309 304.497 384.461 304.132C384.623 303.777 384.755 303.401 384.867 303.016C384.978 302.63 385.049 302.235 385.11 301.809C385.161 301.393 385.191 300.967 385.191 300.531C385.191 300.115 385.161 299.699 385.11 299.283C385.059 298.867 384.978 298.482 384.877 298.096C384.775 297.721 384.643 297.356 384.481 297.011C384.319 296.666 384.136 296.351 383.943 296.067C383.741 295.783 383.517 295.52 383.264 295.286C383.01 295.053 382.736 294.85 382.442 294.688C382.148 294.525 381.834 294.404 381.489 294.323C381.144 294.241 380.779 294.201 380.393 294.201C379.642 294.211 378.963 294.373 378.344 294.678C377.725 294.982 377.208 295.398 376.782 295.946C376.336 296.473 376.001 297.102 375.768 297.832C375.534 298.563 375.413 299.374 375.413 300.247C375.413 300.683 375.433 301.109 375.484 301.545C375.534 301.981 375.605 302.387 375.707 302.793C375.808 303.188 375.93 303.574 376.072 303.939C376.214 304.304 376.386 304.639 376.579 304.953C376.762 305.278 376.985 305.572 377.228 305.826C377.472 306.079 377.756 306.302 378.05 306.485C378.344 306.668 378.679 306.81 379.034 306.911C379.399 307.033 379.774 307.083 380.17 307.104Z" fill="#DB6F2E"/>
<path d="M403.877 297.974L403.035 298.198C402.852 297.843 402.629 297.508 402.375 297.163C402.122 296.828 401.848 296.514 401.554 296.209C401.219 295.854 400.864 295.55 400.489 295.276C400.113 295.002 399.728 294.789 399.342 294.627C399.038 294.505 398.713 294.414 398.389 294.363C398.064 294.312 397.74 294.292 397.425 294.312C397.111 294.333 396.806 294.394 396.512 294.485C396.218 294.576 395.944 294.708 395.691 294.87C395.407 295.043 395.153 295.256 394.93 295.509C394.707 295.763 394.504 296.037 394.331 296.331C394.128 296.666 393.956 297.021 393.824 297.386C393.682 297.751 393.57 298.116 393.469 298.482C393.378 298.887 393.307 299.303 393.256 299.729C393.205 300.155 393.195 300.581 393.205 301.018C393.215 301.454 393.266 301.87 393.337 302.296C393.408 302.712 393.51 303.117 393.652 303.513C393.763 303.797 393.895 304.081 394.057 304.375C394.22 304.669 394.402 304.943 394.595 305.197C394.849 305.521 395.133 305.816 395.457 306.079C395.782 306.343 396.117 306.546 396.482 306.698C396.827 306.85 397.212 306.931 397.618 306.962C398.024 306.992 398.44 306.972 398.855 306.901C399.231 306.83 399.596 306.728 399.951 306.576C400.306 306.424 400.651 306.252 400.986 306.049C401.168 305.927 401.341 305.785 401.483 305.623C401.625 305.461 401.746 305.278 401.848 305.075C401.949 304.872 402.03 304.649 402.112 304.416C402.183 304.182 402.243 303.929 402.284 303.655V302.174L400.194 301.606V301.018H405.875V301.586L404.13 302.052V307.712H403.126L402.467 306.353C402.335 306.434 402.193 306.515 402.051 306.607C401.909 306.698 401.777 306.779 401.635 306.86C401.391 306.992 401.158 307.134 400.925 307.266C400.691 307.398 400.448 307.52 400.194 307.631C399.768 307.783 399.332 307.885 398.886 307.946C398.44 308.007 398.003 308.027 397.557 307.996C396.999 307.966 396.441 307.875 395.893 307.723C395.346 307.57 394.818 307.378 394.331 307.165C393.986 307.002 393.662 306.8 393.368 306.546C393.073 306.292 392.81 306.018 392.566 305.704C392.323 305.389 392.1 305.065 391.907 304.72C391.704 304.375 391.521 304.03 391.369 303.675C391.237 303.391 391.136 303.097 391.055 302.783C390.984 302.468 390.923 302.154 390.882 301.829C390.842 301.464 390.822 301.099 390.832 300.723C390.842 300.348 390.862 299.993 390.903 299.638C390.953 299.151 391.055 298.674 391.197 298.208C391.339 297.741 391.511 297.305 391.735 296.899C391.988 296.422 392.292 295.996 392.637 295.591C392.982 295.195 393.378 294.84 393.824 294.525C394.189 294.272 394.575 294.039 395.001 293.846C395.427 293.653 395.843 293.501 396.279 293.389C396.705 293.298 397.131 293.237 397.557 293.217C397.983 293.197 398.389 293.217 398.795 293.288C399.048 293.339 399.292 293.41 399.525 293.481C399.758 293.552 399.992 293.643 400.215 293.734C400.438 293.826 400.681 293.937 400.915 294.059C401.158 294.181 401.402 294.312 401.655 294.465L402.081 293.572H402.619L403.877 297.974Z" fill="#DB6F2E"/>
<path d="M417.277 293.572C417.288 293.572 417.338 293.572 417.409 293.572C417.48 293.572 417.572 293.582 417.673 293.592C417.774 293.602 417.886 293.622 418.028 293.633C418.16 293.643 418.302 293.663 418.454 293.693C418.606 293.724 418.748 293.744 418.911 293.775C419.063 293.805 419.215 293.836 419.357 293.886C419.499 293.937 419.631 293.978 419.773 294.028C419.905 294.079 420.016 294.13 420.118 294.201C420.3 294.312 420.483 294.444 420.655 294.596C420.828 294.748 420.99 294.921 421.132 295.093C421.274 295.266 421.396 295.459 421.497 295.661C421.599 295.864 421.67 296.077 421.71 296.29C421.751 296.564 421.771 296.838 421.771 297.132C421.771 297.426 421.741 297.71 421.69 297.994C421.639 298.278 421.558 298.552 421.447 298.816C421.335 299.08 421.203 299.323 421.021 299.536C420.848 299.739 420.645 299.912 420.422 300.064C420.199 300.216 419.945 300.338 419.692 300.439C419.428 300.541 419.164 300.622 418.89 300.683C418.616 300.743 418.343 300.804 418.079 300.855L422.197 306.698L423.729 307.124V307.733H420.31L415.695 301.078H412.865V306.596L414.792 307.124V307.733H408.848V307.144L410.816 306.617V294.901L408.787 294.353V293.582H417.277V293.572ZM416.466 300.165C416.72 300.165 416.993 300.135 417.267 300.074C417.551 300.013 417.815 299.922 418.079 299.81C418.343 299.699 418.576 299.546 418.779 299.374C418.982 299.202 419.154 298.999 419.276 298.765C419.347 298.634 419.408 298.481 419.469 298.329C419.529 298.177 419.58 298.015 419.621 297.863C419.661 297.71 419.692 297.548 419.712 297.376C419.732 297.203 419.732 297.041 419.722 296.869C419.712 296.696 419.682 296.534 419.631 296.371C419.58 296.209 419.519 296.047 419.428 295.895C419.337 295.743 419.225 295.59 419.083 295.448C418.941 295.306 418.779 295.174 418.586 295.053C418.251 294.84 417.896 294.677 417.511 294.576C417.125 294.475 416.74 294.414 416.334 294.383C415.928 294.353 415.533 294.353 415.127 294.373C414.721 294.393 414.326 294.434 413.94 294.505C413.778 294.515 413.626 294.556 413.484 294.617C413.342 294.677 413.22 294.748 413.118 294.83C413.017 294.911 412.936 295.002 412.885 295.114C412.834 295.225 412.804 295.337 412.804 295.459V300.155H416.466V300.165Z" fill="#DB6F2E"/>
<path d="M438.345 293.572L439.694 297.335L439.075 297.518C438.872 297.244 438.649 296.99 438.416 296.747C438.172 296.503 437.919 296.27 437.655 296.057C437.391 295.854 437.107 295.661 436.813 295.489C436.519 295.316 436.215 295.154 435.91 295.022C435.545 294.86 435.17 294.728 434.774 294.627C434.379 294.525 433.983 294.464 433.577 294.434C433.253 294.404 432.938 294.404 432.624 294.414C432.309 294.424 431.995 294.464 431.69 294.515C431.518 294.556 431.356 294.627 431.204 294.718C431.061 294.809 430.94 294.931 430.838 295.063C430.747 295.185 430.666 295.327 430.615 295.479C430.564 295.631 430.534 295.793 430.534 295.956V299.658H433.912L434.531 297.051H435.291V303.239H434.592L433.892 300.632H430.534V305.126C430.534 305.288 430.564 305.45 430.635 305.623C430.706 305.795 430.788 305.947 430.879 306.079C430.99 306.231 431.112 306.353 431.264 306.454C431.417 306.556 431.569 306.617 431.731 306.647C432.056 306.698 432.37 306.738 432.685 306.769C432.999 306.799 433.313 306.799 433.638 306.789C434.044 306.759 434.439 306.698 434.845 306.607C435.251 306.515 435.647 306.373 436.032 306.201C436.397 306.039 436.762 305.825 437.128 305.572C437.493 305.318 437.858 305.014 438.223 304.679C438.477 304.436 438.73 304.172 438.974 303.888C439.217 303.604 439.471 303.3 439.704 302.975L440.384 303.239L438.537 307.692H426.69V307.063L428.434 306.596V294.708L426.608 294.201V293.572H438.345Z" fill="#DB6F2E"/>
<path d="M454.577 297.214L454.019 297.498L452.437 295.722C452.173 295.52 451.919 295.327 451.676 295.154C451.432 294.982 451.199 294.82 450.956 294.688C450.672 294.536 450.388 294.414 450.083 294.323C449.779 294.231 449.454 294.17 449.089 294.16C448.785 294.15 448.47 294.17 448.166 294.221C447.862 294.272 447.568 294.353 447.304 294.465C447.02 294.586 446.776 294.738 446.563 294.911C446.35 295.083 446.178 295.296 446.066 295.54C445.934 295.854 445.863 296.128 445.863 296.372C445.863 296.615 445.904 296.838 445.985 297.031C446.066 297.224 446.178 297.396 446.32 297.538C446.462 297.68 446.604 297.802 446.756 297.913C447.081 298.147 447.415 298.329 447.781 298.471C448.146 298.613 448.511 298.735 448.886 298.826C449.312 298.938 449.749 299.029 450.195 299.121C450.641 299.212 451.067 299.303 451.503 299.415C451.889 299.526 452.264 299.638 452.629 299.75C452.994 299.861 453.329 300.003 453.634 300.165C453.938 300.328 454.222 300.52 454.475 300.733C454.729 300.946 454.952 301.21 455.135 301.504C455.307 301.778 455.429 302.072 455.51 302.407C455.581 302.742 455.622 303.067 455.622 303.391C455.622 303.716 455.581 304.03 455.51 304.334C455.439 304.639 455.348 304.903 455.257 305.136C455.084 305.491 454.881 305.805 454.648 306.089C454.415 306.373 454.151 306.627 453.877 306.84C453.552 307.083 453.218 307.286 452.873 307.449C452.528 307.611 452.183 307.743 451.848 307.834C451.544 307.925 451.24 307.996 450.945 308.027C450.651 308.057 450.367 308.078 450.083 308.078C449.799 308.067 449.515 308.037 449.221 308.007C448.927 307.976 448.623 307.936 448.318 307.895C448.075 307.854 447.831 307.783 447.578 307.692C447.324 307.601 447.071 307.489 446.817 307.368C446.624 307.276 446.442 307.175 446.259 307.063C446.066 306.952 445.894 306.85 445.721 306.759L445.437 307.733H444.575L443.267 302.955L444.007 302.833C444.19 303.168 444.393 303.503 444.606 303.817C444.819 304.132 445.042 304.436 445.265 304.74C445.508 305.034 445.762 305.318 446.036 305.582C446.31 305.846 446.614 306.089 446.949 306.302C447.284 306.515 447.618 306.688 447.963 306.81C448.308 306.931 448.643 307.012 448.978 307.053C449.312 307.094 449.637 307.104 449.951 307.094C450.266 307.083 450.57 307.043 450.864 306.992C451.199 306.941 451.503 306.84 451.787 306.688C452.071 306.536 452.315 306.373 452.528 306.181C452.751 305.978 452.944 305.755 453.096 305.521C453.248 305.288 453.36 305.045 453.431 304.801C453.522 304.466 453.573 304.152 453.573 303.868C453.573 303.584 453.532 303.33 453.441 303.107C453.35 302.884 453.228 302.681 453.065 302.509C452.903 302.336 452.721 302.194 452.528 302.083C452.163 301.91 451.798 301.758 451.432 301.636C451.067 301.515 450.692 301.403 450.317 301.312C449.931 301.22 449.546 301.129 449.16 301.058C448.775 300.987 448.399 300.896 448.024 300.804C447.618 300.713 447.223 300.591 446.827 300.439C446.431 300.287 446.066 300.125 445.732 299.952C445.397 299.76 445.103 299.557 444.839 299.344C444.575 299.131 444.382 298.908 444.271 298.674C444.109 298.39 443.997 298.096 443.936 297.782C443.875 297.467 443.845 297.163 443.845 296.869C443.855 296.463 443.936 296.077 444.068 295.712C444.2 295.347 444.382 295.022 444.606 294.738C444.869 294.414 445.174 294.15 445.508 293.937C445.843 293.724 446.198 293.572 446.573 293.46C447 293.328 447.446 293.247 447.902 293.227C448.359 293.207 448.815 293.207 449.272 293.237C449.566 293.268 449.85 293.308 450.114 293.369C450.377 293.43 450.641 293.501 450.885 293.592C451.128 293.683 451.382 293.775 451.625 293.886C451.869 293.998 452.132 294.11 452.396 294.231L452.619 293.541H453.36L454.577 297.214Z" fill="#DB6F2E"/>
<path d="M469.213 297.214L468.655 297.498L467.072 295.722C466.809 295.52 466.555 295.327 466.312 295.154C466.068 294.982 465.835 294.82 465.591 294.688C465.307 294.536 465.023 294.414 464.719 294.323C464.415 294.231 464.09 294.17 463.725 294.16C463.421 294.15 463.106 294.17 462.802 294.221C462.498 294.272 462.203 294.353 461.94 294.465C461.656 294.586 461.412 294.738 461.199 294.911C460.986 295.083 460.814 295.296 460.702 295.54C460.57 295.854 460.499 296.128 460.499 296.372C460.499 296.615 460.54 296.838 460.621 297.031C460.702 297.224 460.814 297.396 460.956 297.538C461.098 297.68 461.24 297.802 461.392 297.913C461.716 298.147 462.051 298.329 462.416 298.471C462.782 298.613 463.147 298.735 463.522 298.826C463.948 298.938 464.384 299.029 464.831 299.121C465.277 299.212 465.703 299.303 466.139 299.415C466.525 299.526 466.9 299.638 467.265 299.75C467.63 299.861 467.965 300.003 468.269 300.165C468.574 300.328 468.858 300.52 469.111 300.733C469.365 300.946 469.588 301.21 469.771 301.504C469.943 301.778 470.065 302.072 470.146 302.407C470.217 302.742 470.257 303.067 470.257 303.391C470.257 303.716 470.217 304.03 470.146 304.334C470.075 304.639 469.984 304.903 469.892 305.136C469.72 305.491 469.517 305.805 469.284 306.089C469.05 306.373 468.787 306.627 468.513 306.84C468.188 307.083 467.853 307.286 467.509 307.449C467.164 307.611 466.819 307.743 466.484 307.834C466.18 307.925 465.875 307.996 465.581 308.027C465.287 308.057 465.003 308.078 464.719 308.078C464.435 308.067 464.151 308.037 463.857 308.007C463.563 307.976 463.258 307.936 462.954 307.895C462.71 307.854 462.467 307.783 462.213 307.692C461.96 307.601 461.706 307.489 461.453 307.368C461.26 307.276 461.077 307.175 460.895 307.063C460.702 306.952 460.53 306.85 460.357 306.759L460.073 307.733H459.211L457.902 302.955L458.643 302.833C458.825 303.168 459.028 303.503 459.241 303.817C459.454 304.132 459.677 304.436 459.901 304.74C460.144 305.034 460.398 305.318 460.672 305.582C460.945 305.846 461.25 306.089 461.585 306.302C461.919 306.515 462.254 306.688 462.599 306.81C462.944 306.931 463.279 307.012 463.613 307.053C463.948 307.094 464.273 307.104 464.587 307.094C464.902 307.083 465.206 307.043 465.5 306.992C465.835 306.941 466.139 306.84 466.423 306.688C466.707 306.536 466.951 306.373 467.164 306.181C467.387 305.978 467.58 305.755 467.732 305.521C467.884 305.288 467.995 305.045 468.066 304.801C468.158 304.466 468.208 304.152 468.208 303.868C468.208 303.584 468.168 303.33 468.077 303.107C467.985 302.884 467.864 302.681 467.701 302.509C467.539 302.336 467.356 302.194 467.164 302.083C466.798 301.91 466.433 301.758 466.068 301.636C465.703 301.515 465.328 301.403 464.952 301.312C464.567 301.22 464.181 301.129 463.796 301.058C463.41 300.987 463.035 300.896 462.66 300.804C462.254 300.713 461.858 300.591 461.463 300.439C461.067 300.287 460.702 300.125 460.367 299.952C460.033 299.76 459.738 299.557 459.475 299.344C459.211 299.131 459.018 298.908 458.907 298.674C458.744 298.39 458.633 298.096 458.572 297.782C458.511 297.467 458.481 297.163 458.481 296.869C458.491 296.463 458.572 296.077 458.704 295.712C458.836 295.347 459.018 295.022 459.241 294.738C459.505 294.414 459.809 294.15 460.144 293.937C460.479 293.724 460.834 293.572 461.209 293.46C461.635 293.328 462.082 293.247 462.538 293.227C462.995 293.207 463.451 293.207 463.907 293.237C464.202 293.268 464.486 293.308 464.749 293.369C465.013 293.43 465.277 293.501 465.52 293.592C465.764 293.683 466.017 293.775 466.261 293.886C466.504 293.998 466.768 294.11 467.032 294.231L467.255 293.541H467.995L469.213 297.214Z" fill="#DB6F2E"/>
<path d="M124.586 90.7061L125.103 90.8278L125.184 92.7348L138.726 101.529L138.402 102.929L127.497 103.934L136.819 109.685L136.515 110.994L120.64 112.678L119.838 114.159L119.118 113.986L120.569 107.768L121.198 107.92L121.248 109.959L133.502 108.863L125.468 104.147L122.608 104.552L121.766 106.125L121.015 105.952L122.516 99.5312L123.216 99.6935L123.277 101.763L135.48 100.698L125.144 94.4897L123.967 96.6706L123.216 96.4982L124.586 90.7061Z" fill="#E6E7E8"/>
<path d="M131.736 74.314L147.814 75.511L149.062 74.0503L149.711 74.3647L146.84 80.3293L146.151 79.9946L146.567 77.8441L141.495 77.4586L138.878 82.8957L142.367 86.4054L144.071 84.4173L144.72 84.7317L141.992 90.4021L141.363 90.0978L141.748 88.069L130.793 76.2921L131.736 74.314ZM132.903 76.7587L138.066 82.1045L140.369 77.3369L132.903 76.7587Z" fill="#E6E7E8"/>
<path d="M143.452 54.7461L143.868 55.0808L143.108 57.1096L153.191 64.4131C153.454 64.6059 153.677 64.7276 153.87 64.7986C154.063 64.8595 154.235 64.8798 154.388 64.8595C154.54 64.8392 154.672 64.7783 154.793 64.6972C154.915 64.616 155.037 64.5146 155.179 64.403C155.422 64.2001 155.645 63.9567 155.848 63.6726C156.051 63.3886 156.224 63.0843 156.376 62.7496C156.518 62.4148 156.65 62.0598 156.751 61.6743C156.852 61.2889 156.934 60.8932 156.974 60.4875C157.025 60.0817 157.045 59.6658 157.045 59.2499C157.045 58.8239 157.015 58.408 156.964 57.982C156.903 57.5559 156.822 57.14 156.7 56.714C156.579 56.2981 156.437 55.9025 156.274 55.5272L156.873 55.1316L159.875 59.6557L152.663 69.6068L152.024 69.1402L152.764 67.2128L141.647 59.1587L140.075 60.4571L139.567 60.0919L143.452 54.7461Z" fill="#E6E7E8"/>
<path d="M158.1 37.7041L158.465 38.0896L157.156 40.2502L161.924 45.241L162.502 35.4319L160.24 36.6593L159.712 36.1014L164.531 31.4961L165.048 32.0337L163.953 33.8494L163.496 40.1285L174.208 43.06L176.034 42.0457L176.48 42.5123L171.358 47.4117L170.81 46.8437L172.017 44.8454L163.182 42.492L162.928 46.3263L166.59 50.1506L168.649 49.0145L169.268 49.3898L164.145 54.2892L163.679 53.8023L164.825 51.9359L155.3 41.9747L153.403 43.0195L152.967 42.563L158.1 37.7041Z" fill="#E6E7E8"/>
<path d="M177.142 22.1636L177.527 22.7113L176.158 24.3546L184.06 35.6143L186.038 34.9143L186.433 35.4824L181.22 39.1342L180.794 38.5255L182.082 37.004L174.17 25.724L172.232 26.4341L171.847 25.8864L177.142 22.1636Z" fill="#E6E7E8"/>
<path d="M188.583 15.3372L201.395 23.3305L196.252 13.0143L193.868 13.5012L193.564 12.9027L198.737 10.3262L199.062 10.9754L197.449 12.4259L204.113 25.7955L202.196 26.749L187.853 17.8022L193.655 29.4473L196.069 28.9705L196.384 29.5893L191.19 32.1759L190.876 31.5572L192.519 30.1168L186.443 17.9138L184.292 18.3398L183.947 17.65L188.583 15.3372Z" fill="#E6E7E8"/>
<path d="M223.163 7.93252L222.29 8.42956C221.976 8.09482 221.621 7.78036 221.245 7.48619C220.86 7.19202 220.454 6.91813 220.038 6.68482C219.562 6.4008 219.075 6.15735 218.568 5.97476C218.071 5.79217 217.573 5.66031 217.097 5.59944C216.711 5.55887 216.336 5.55887 215.95 5.59944C215.565 5.64002 215.2 5.72117 214.855 5.83275C214.51 5.95447 214.185 6.10664 213.891 6.29937C213.587 6.4921 213.323 6.71526 213.09 6.979C212.826 7.26303 212.613 7.56734 212.431 7.91223C212.248 8.25712 212.106 8.62229 212.005 8.99761C211.883 9.4338 211.791 9.86998 211.751 10.3163C211.7 10.7626 211.68 11.1988 211.69 11.635C211.71 12.1118 211.751 12.5885 211.832 13.0754C211.903 13.5623 212.015 14.0391 212.157 14.5158C212.299 14.9926 212.481 15.4491 212.684 15.8853C212.887 16.3316 213.13 16.7475 213.394 17.133C213.597 17.417 213.83 17.6909 214.104 17.9648C214.368 18.2386 214.652 18.4821 214.956 18.7052C215.342 18.9893 215.748 19.2226 216.184 19.4153C216.62 19.608 217.066 19.7298 217.513 19.7906C217.949 19.8515 218.395 19.8312 218.862 19.7399C219.328 19.6486 219.775 19.4965 220.221 19.3037C220.617 19.111 220.992 18.8878 221.347 18.614C221.702 18.3401 222.027 18.0459 222.341 17.7213C222.513 17.5286 222.655 17.3257 222.767 17.1025C222.879 16.8794 222.96 16.6461 223.011 16.3925C223.061 16.1389 223.092 15.865 223.102 15.581C223.112 15.2969 223.102 15.0027 223.061 14.6883L222.615 13.0551H220.109L219.937 12.4059L226.287 10.6916L226.459 11.3206L224.644 12.3654L226.338 18.6444L225.212 18.9487L224.065 17.6503C223.944 17.7822 223.812 17.914 223.68 18.056C223.548 18.1981 223.416 18.3299 223.295 18.4618C223.061 18.685 222.838 18.9081 222.615 19.1211C222.392 19.3443 222.158 19.5472 221.905 19.7501C221.469 20.0442 221.012 20.2877 220.546 20.4906C220.069 20.6934 219.582 20.8456 219.085 20.947C218.446 21.089 217.797 21.1499 217.137 21.1499C216.478 21.1398 215.839 21.0992 215.22 21.0079C214.784 20.9369 214.358 20.805 213.962 20.6123C213.556 20.4196 213.171 20.1964 212.816 19.9225C212.451 19.6486 212.106 19.3545 211.781 19.04C211.457 18.7154 211.152 18.3908 210.858 18.0459C210.625 17.772 210.422 17.4778 210.239 17.1532C210.067 16.8286 209.905 16.4939 209.763 16.149C209.611 15.7534 209.479 15.3578 209.377 14.9419C209.276 14.526 209.195 14.1202 209.134 13.7246C209.043 13.1667 209.012 12.619 209.032 12.0509C209.053 11.493 209.114 10.9554 209.235 10.4482C209.377 9.8497 209.58 9.27151 209.854 8.72374C210.128 8.17597 210.463 7.66877 210.858 7.19201C211.183 6.79641 211.558 6.43123 211.964 6.08634C212.38 5.74145 212.806 5.44728 213.252 5.19368C213.699 4.96038 214.155 4.76765 214.622 4.61549C215.088 4.46334 215.555 4.37203 216.021 4.32131C216.326 4.30103 216.61 4.30103 216.894 4.31118C217.178 4.32132 217.462 4.34162 217.746 4.38219C218.03 4.42277 218.324 4.46334 218.628 4.5242C218.933 4.58507 219.247 4.65606 219.582 4.74735L219.785 3.63154L220.393 3.46924L223.163 7.93252Z" fill="#E6E7E8"/>
<path d="M259.58 0.375316L260.766 4.59514L259.924 4.82845C259.762 4.53428 259.58 4.22997 259.377 3.91551C259.174 3.6112 258.951 3.31702 258.717 3.05328C258.474 2.7794 258.21 2.53595 257.926 2.31279C257.642 2.08962 257.338 1.8969 257.013 1.7346C256.709 1.58244 256.384 1.47086 256.05 1.36942C255.715 1.27813 255.35 1.21726 254.964 1.18682C254.782 1.17668 254.619 1.18683 254.477 1.20712C254.335 1.2274 254.224 1.26798 254.122 1.33899C254.031 1.41 253.96 1.50128 253.909 1.61286C253.858 1.72444 253.828 1.8766 253.828 2.05919L253.483 15.0433L256.039 15.7838L256.019 16.5243L248.685 16.3315L248.705 15.6113L251.12 15.023L251.465 2.0389C251.465 1.86646 251.454 1.72446 251.404 1.59259C251.363 1.47086 251.302 1.36941 251.221 1.29841C251.15 1.2274 251.059 1.16654 250.957 1.12596C250.856 1.08539 250.754 1.06509 250.643 1.05495C250.298 1.04481 249.973 1.0651 249.639 1.10567C249.314 1.15639 248.989 1.2274 248.675 1.32884C248.239 1.49114 247.823 1.69401 247.427 1.94761C247.032 2.20121 246.677 2.48523 246.362 2.79969C246.119 3.05328 245.906 3.32717 245.713 3.61119C245.52 3.89522 245.368 4.18939 245.246 4.4937L244.374 4.1894L245.855 0L259.58 0.375316Z" fill="#E6E7E8"/>
<path d="M274.551 19.5677C273.973 19.446 273.425 19.2634 272.908 19.0301C272.391 18.7968 271.894 18.533 271.437 18.249C270.971 17.9244 270.545 17.5592 270.149 17.1636C269.763 16.7579 269.408 16.342 269.094 15.8855C268.8 15.429 268.546 14.9421 268.333 14.4248C268.12 13.9075 267.958 13.38 267.836 12.8322C267.735 12.2844 267.684 11.7265 267.674 11.1585C267.674 10.5904 267.735 10.0122 267.856 9.43404C267.978 8.85584 268.161 8.30807 268.384 7.7806C268.607 7.25312 268.871 6.75608 269.175 6.29961C269.479 5.82285 269.834 5.39681 270.23 5.01134C270.626 4.62588 271.042 4.28098 271.488 3.97667C271.934 3.66221 272.411 3.39847 272.918 3.19559C273.425 2.99271 273.943 2.82028 274.48 2.69855C275.028 2.59712 275.586 2.54639 276.164 2.54639C276.742 2.54639 277.331 2.60725 277.919 2.73912C278.507 2.87099 279.075 3.04344 279.603 3.2869C280.141 3.5202 280.638 3.80422 281.084 4.11868C281.54 4.42299 281.966 4.77804 282.352 5.17365C282.737 5.56925 283.072 5.99529 283.366 6.44162C283.66 6.89809 283.914 7.38499 284.107 7.88204C284.31 8.38923 284.462 8.90657 284.563 9.45433C284.675 9.98181 284.715 10.5296 284.705 11.0976C284.695 11.6657 284.624 12.2439 284.492 12.8322C284.371 13.4104 284.188 13.9582 283.965 14.4857C283.742 15.0131 283.478 15.5102 283.163 15.9667C282.839 16.4333 282.484 16.8694 282.098 17.2549C281.713 17.6505 281.297 17.9954 280.851 18.3099C280.404 18.6243 279.928 18.8881 279.43 19.1112C278.933 19.3242 278.416 19.4866 277.889 19.5981C277.361 19.7097 276.813 19.7604 276.245 19.7503C275.687 19.7604 275.119 19.6894 274.551 19.5677ZM274.531 18.3504C274.998 18.4519 275.454 18.5026 275.88 18.4925C276.306 18.4823 276.722 18.4214 277.108 18.2997C277.503 18.178 277.879 18.0157 278.234 17.8027C278.599 17.5998 278.923 17.3462 279.228 17.0419C279.542 16.7579 279.836 16.4434 280.1 16.0782C280.364 15.7131 280.607 15.3377 280.82 14.932C281.033 14.5262 281.226 14.1002 281.388 13.6437C281.551 13.1872 281.682 12.7206 281.794 12.2337C281.895 11.7671 281.966 11.2904 282.007 10.8136C282.048 10.3368 282.058 9.88036 282.037 9.42389C282.017 8.97756 281.956 8.54138 281.855 8.11534C281.753 7.6893 281.632 7.2937 281.469 6.92852C281.307 6.56334 281.114 6.21845 280.891 5.88371C280.658 5.55911 280.394 5.26494 280.11 5.01134C279.816 4.75775 279.491 4.54472 279.116 4.37228C278.751 4.19983 278.345 4.05782 277.909 3.96653C277.057 3.79408 276.245 3.80423 275.474 3.99696C274.703 4.18969 274.014 4.53459 273.395 5.03163C272.766 5.50839 272.228 6.1373 271.792 6.90823C271.346 7.67916 271.021 8.55152 270.808 9.53547C270.707 10.0224 270.626 10.5093 270.575 11.0063C270.524 11.5034 270.504 11.9903 270.524 12.4569C270.545 12.9235 270.585 13.38 270.656 13.8263C270.727 14.2726 270.839 14.6885 270.991 15.0841C271.123 15.4899 271.295 15.8754 271.518 16.2203C271.731 16.5651 271.995 16.8796 272.289 17.1636C272.583 17.4375 272.918 17.681 273.294 17.8838C273.659 18.0766 274.075 18.2389 274.531 18.3504Z" fill="#E6E7E8"/>
<path d="M306.767 18.5526L305.773 18.3904C305.732 17.9339 305.661 17.4673 305.55 17.0006C305.438 16.5239 305.296 16.0674 305.114 15.6211C304.921 15.0936 304.687 14.6067 304.414 14.1502C304.14 13.6938 303.835 13.288 303.501 12.933C303.227 12.6591 302.933 12.4258 302.608 12.2128C302.283 11.9997 301.949 11.8374 301.614 11.7056C301.269 11.5839 300.924 11.5027 300.569 11.4621C300.214 11.4216 299.859 11.4317 299.524 11.4824C299.149 11.5331 298.774 11.6447 298.419 11.7969C298.064 11.949 297.719 12.1418 297.404 12.3751C297.039 12.6388 296.694 12.9228 296.38 13.2373C296.065 13.5518 295.771 13.8865 295.497 14.2213C295.213 14.6067 294.939 15.0023 294.696 15.4284C294.452 15.8544 294.229 16.2906 294.047 16.7572C293.864 17.2137 293.712 17.6803 293.59 18.157C293.479 18.6338 293.397 19.1004 293.357 19.5772C293.337 19.9221 293.347 20.2873 293.387 20.6727C293.418 21.048 293.489 21.4233 293.58 21.7885C293.702 22.245 293.864 22.6913 294.087 23.1174C294.31 23.5434 294.574 23.9187 294.889 24.2433C295.193 24.5578 295.548 24.8317 295.964 25.0447C296.38 25.2679 296.826 25.4302 297.303 25.562C297.729 25.6635 298.165 25.7243 298.611 25.7345C299.058 25.7446 299.504 25.7243 299.95 25.6635C300.204 25.6229 300.447 25.5519 300.671 25.4504C300.894 25.349 301.107 25.207 301.31 25.0447C301.512 24.8824 301.705 24.6897 301.888 24.4766C302.07 24.2636 302.253 24.0202 302.415 23.7564L303.095 22.2044L301.147 20.6321L301.421 20.0134L307.436 22.6609L307.173 23.2594L305.103 22.9348L302.476 28.8892L301.411 28.4226L301.34 26.688C301.157 26.7083 300.975 26.7387 300.792 26.759C300.6 26.7894 300.417 26.8097 300.234 26.83C299.92 26.8604 299.605 26.8909 299.291 26.9213C298.976 26.9517 298.662 26.972 298.348 26.9619C297.83 26.9213 297.313 26.8199 296.816 26.6779C296.319 26.5358 295.842 26.3431 295.386 26.1098C294.807 25.8156 294.26 25.4606 293.752 25.0447C293.245 24.6288 292.779 24.1825 292.353 23.726C292.058 23.3913 291.815 23.0261 291.622 22.6305C291.43 22.2349 291.277 21.8088 291.166 21.3726C291.054 20.9365 290.973 20.4901 290.922 20.0337C290.872 19.5772 290.841 19.1309 290.831 18.6845C290.821 18.3193 290.851 17.9643 290.912 17.5991C290.973 17.234 291.064 16.8789 291.176 16.5239C291.298 16.1181 291.45 15.7327 291.632 15.3472C291.815 14.9618 292.008 14.5966 292.211 14.2415C292.495 13.7546 292.819 13.2982 293.184 12.8823C293.55 12.4664 293.935 12.0809 294.351 11.7563C294.838 11.381 295.355 11.0665 295.913 10.8028C296.461 10.5492 297.049 10.3565 297.658 10.2449C298.155 10.1434 298.682 10.0927 299.22 10.0826C299.758 10.0724 300.275 10.113 300.782 10.2043C301.279 10.3057 301.756 10.4478 302.212 10.6202C302.669 10.7926 303.095 11.0158 303.491 11.2694C303.734 11.4418 303.967 11.6244 304.18 11.8172C304.393 11.9997 304.596 12.2026 304.799 12.4055C304.992 12.6084 305.195 12.8315 305.398 13.075C305.6 13.3184 305.793 13.572 305.996 13.8459L306.858 13.1054L307.436 13.359L306.767 18.5526Z" fill="#E6E7E8"/>
<path d="M329.662 27.0027L328.465 31.4356L327.755 31.1921C327.745 30.8067 327.704 30.4212 327.633 30.0256C327.562 29.6401 327.471 29.2547 327.359 28.8692C327.238 28.504 327.096 28.1389 326.933 27.7737C326.771 27.4085 326.588 27.0636 326.386 26.739C326.152 26.3434 325.878 25.9681 325.564 25.613C325.26 25.258 324.925 24.9334 324.56 24.6392C324.276 24.4059 323.971 24.1828 323.667 23.99C323.363 23.7973 323.038 23.6147 322.713 23.4626C322.521 23.3814 322.328 23.3408 322.125 23.3307C321.922 23.3205 321.73 23.351 321.557 23.4118C321.385 23.4626 321.222 23.5437 321.07 23.6553C320.918 23.7669 320.786 23.8987 320.685 24.0509L318.25 27.5302L321.445 29.7619L323.748 27.723L324.468 28.2301L320.391 34.0527L319.721 33.5861L320.776 30.6647L317.601 28.4432L314.649 32.6731C314.538 32.8253 314.467 33.0079 314.416 33.2108C314.365 33.4136 314.345 33.6064 314.345 33.7991C314.345 34.0121 314.385 34.215 314.456 34.4077C314.527 34.6005 314.629 34.7628 314.771 34.8946C315.045 35.1584 315.319 35.412 315.592 35.6453C315.877 35.8786 316.171 36.0916 316.485 36.2945C316.881 36.5379 317.307 36.7408 317.743 36.9234C318.189 37.0958 318.646 37.2379 319.133 37.3291C319.579 37.4204 320.066 37.461 320.583 37.461C321.101 37.461 321.638 37.4306 322.206 37.3494C322.612 37.2886 323.018 37.2074 323.444 37.106C323.86 37.0045 324.296 36.8828 324.742 36.7307L325.219 37.4306L320.543 40.3926L309.313 32.5413L309.729 31.9529L311.697 32.6731L319.528 21.4744L318.128 19.7905L318.544 19.2021L329.662 27.0027Z" fill="#E6E7E8"/>
<path d="M347.598 43.4759L345.538 47.3407L344.767 46.9248C344.859 46.6002 344.94 46.2553 345.001 45.8901C345.072 45.525 345.112 45.1699 345.122 44.8047C345.133 44.4396 345.112 44.0845 345.062 43.7194C345.011 43.3542 344.92 43.0093 344.808 42.6644C344.686 42.3499 344.544 42.0355 344.362 41.7312C344.179 41.4268 343.966 41.1327 343.702 40.8487C343.57 40.7168 343.449 40.6052 343.337 40.524C343.226 40.4429 343.104 40.3922 342.992 40.3719C342.881 40.3516 342.759 40.3719 342.647 40.4226C342.536 40.4733 342.404 40.5646 342.272 40.6864L333.041 49.8158L334.38 52.1184L333.853 52.6459L328.689 47.4218L329.197 46.9146L331.337 48.1623L340.568 39.0329C340.69 38.9112 340.781 38.7895 340.832 38.6677C340.882 38.546 340.913 38.4344 340.903 38.333C340.892 38.2315 340.872 38.1301 340.832 38.0287C340.791 37.9272 340.73 37.8461 340.649 37.7649C340.406 37.5215 340.152 37.3085 339.888 37.1157C339.624 36.923 339.34 36.7505 339.046 36.6085C338.62 36.4158 338.174 36.2839 337.717 36.1926C337.261 36.1013 336.804 36.0608 336.358 36.0709C336.003 36.0912 335.668 36.1318 335.334 36.2028C334.999 36.2738 334.684 36.3752 334.39 36.5172L333.964 35.6956L337.93 33.6973L347.598 43.4759Z" fill="#E6E7E8"/>
<path d="M357.72 56.5311L357.223 56.8659L355.509 55.3545L350.731 58.5701L355.438 65.5693L360.165 62.3943L359.485 60.3858L360.063 60.0003L363.745 65.478L363.127 65.8939L361.422 64.4028L350.142 71.9903L350.893 74.1408L350.315 74.5263L346.602 69.0182L347.201 68.6124L348.834 70.0326L354.636 66.1272L349.919 59.1077L344.158 62.9826L344.908 65.1331L344.289 65.549L340.638 60.1119L341.216 59.7265L342.748 61.0451L354.078 53.417L353.409 51.4592L354.048 51.0332L357.72 56.5311Z" fill="#E6E7E8"/>
<path d="M373.189 85.7659L369.811 88.88L369.334 88.3018C369.527 87.9671 369.699 87.6222 369.851 87.257C370.004 86.8919 370.125 86.5165 370.237 86.1412C370.328 85.7659 370.409 85.3804 370.46 84.9848C370.511 84.5892 370.541 84.2037 370.551 83.8183C370.562 83.3618 370.531 82.8952 370.46 82.4286C370.389 81.962 370.277 81.5055 370.125 81.0693C370.014 80.7143 369.872 80.3694 369.72 80.0448C369.567 79.7202 369.385 79.3956 369.192 79.0913C369.07 78.9188 368.928 78.787 368.766 78.6652C368.604 78.5536 368.421 78.4725 368.239 78.4319C368.066 78.3812 367.884 78.3711 367.701 78.3812C367.508 78.3913 367.336 78.4319 367.163 78.5029L363.248 80.1462L364.759 83.7473L367.802 83.2502L368.147 84.0617L361.594 86.8208L361.28 86.0702L363.725 84.1632L362.223 80.5824L357.466 82.5807C357.293 82.6517 357.131 82.7633 356.989 82.9053C356.837 83.0473 356.715 83.1995 356.614 83.3618C356.502 83.5444 356.431 83.7371 356.391 83.94C356.35 84.1429 356.35 84.3356 356.391 84.5182C356.482 84.8834 356.573 85.2384 356.685 85.5935C356.796 85.9485 356.928 86.2832 357.091 86.618C357.304 87.0339 357.547 87.4396 357.821 87.8251C358.095 88.2106 358.419 88.5757 358.785 88.9105C359.119 89.2249 359.505 89.5191 359.941 89.8031C360.377 90.077 360.854 90.3407 361.371 90.574C361.747 90.7364 362.132 90.8885 362.548 91.0305C362.954 91.1725 363.39 91.2943 363.836 91.4058L363.867 92.2478L358.328 92.2579L353.013 79.6187L353.672 79.3347L354.95 80.9882L367.539 75.6931L367.255 73.5223L367.914 73.2383L373.189 85.7659Z" fill="#E6E7E8"/>
<path d="M378.739 105.82C378.739 105.83 378.749 105.881 378.769 105.972C378.79 106.053 378.8 106.155 378.81 106.276C378.82 106.398 378.83 106.53 378.851 106.682C378.871 106.834 378.881 106.997 378.881 107.169C378.881 107.341 378.891 107.514 378.891 107.696C378.901 107.879 378.891 108.052 378.871 108.224C378.851 108.396 378.83 108.559 378.81 108.721C378.79 108.883 378.749 109.025 378.698 109.147C378.617 109.38 378.516 109.624 378.384 109.857C378.252 110.09 378.1 110.303 377.938 110.506C377.775 110.709 377.593 110.892 377.39 111.044C377.187 111.206 376.964 111.338 376.73 111.429C376.436 111.541 376.122 111.622 375.797 111.693C375.473 111.764 375.138 111.795 374.813 111.805C374.479 111.815 374.154 111.784 373.84 111.724C373.515 111.663 373.221 111.561 372.937 111.409C372.673 111.257 372.419 111.074 372.206 110.851C371.983 110.628 371.79 110.385 371.618 110.111C371.446 109.837 371.293 109.553 371.151 109.259C371.02 108.964 370.888 108.67 370.766 108.376L365.156 114.402L365.035 116.227L364.355 116.369L363.554 112.505L369.954 105.718L369.285 102.513L363.077 103.801L362.935 106.104L362.255 106.246L360.855 99.5104L361.515 99.3786L362.57 101.488L375.736 98.7598L375.878 96.3354L376.741 96.1528L378.739 105.82ZM371.141 106.449C371.202 106.733 371.293 107.037 371.435 107.341C371.567 107.646 371.73 107.93 371.922 108.204C372.115 108.478 372.328 108.701 372.572 108.893C372.815 109.086 373.079 109.228 373.373 109.309C373.535 109.35 373.718 109.391 373.911 109.421C374.103 109.451 374.286 109.472 374.468 109.482C374.651 109.492 374.844 109.492 375.036 109.472C375.229 109.451 375.422 109.421 375.605 109.37C375.787 109.32 375.97 109.238 376.142 109.147C376.315 109.056 376.477 108.944 376.629 108.812C376.781 108.68 376.923 108.518 377.045 108.325C377.167 108.133 377.278 107.92 377.37 107.676C377.532 107.25 377.623 106.804 377.654 106.347C377.674 105.891 377.654 105.434 377.593 104.968C377.532 104.511 377.441 104.055 377.319 103.598C377.197 103.152 377.055 102.706 376.893 102.29C376.842 102.107 376.761 101.945 376.659 101.803C376.558 101.661 376.446 101.539 376.335 101.438C376.223 101.346 376.091 101.275 375.96 101.245C375.828 101.215 375.686 101.204 375.554 101.235L370.279 102.33L371.141 106.449Z" fill="#E6E7E8"/>
<path d="M229.007 36.1113C232.892 35.3201 236.392 37.0141 238.836 40.1486C240.824 42.6947 241.808 45.6465 241.788 49.0041C241.737 58.4581 232.131 63.2359 225.741 55.0498C223.478 52.1588 222.353 48.852 222.353 45.1292C222.353 40.9804 224.716 36.9837 229.007 36.1113ZM229.544 40.5645C226.927 41.5078 225.923 45.3422 227.293 49.136C228.662 52.9298 231.878 55.2426 234.495 54.2992C237.112 53.3558 238.116 49.5214 236.747 45.7277C235.377 41.9339 232.162 39.6211 229.544 40.5645Z" fill="#E6E7E8"/>
<path d="M211.386 42.5932C214.936 41.6092 218.74 44.1148 219.866 48.1926C220.992 52.2704 219.035 56.3786 215.474 57.3626C211.924 58.3465 208.12 55.841 206.994 51.7632C205.868 47.6854 207.836 43.5771 211.386 42.5932ZM212.248 45.5653C210.615 45.9812 209.763 48.1926 210.351 50.5155C210.94 52.8384 212.745 54.3803 214.379 53.9644C216.012 53.5485 216.864 51.3372 216.275 49.0142C215.687 46.6913 213.882 45.1494 212.248 45.5653Z" fill="#E6E7E8"/>
<path d="M197.083 50.7997C199.811 49.6231 203.088 51.1548 204.407 54.2182C205.725 57.2816 204.589 60.7204 201.86 61.8971C199.132 63.0738 195.855 61.542 194.537 58.4786C193.218 55.4152 194.354 51.9764 197.083 50.7997ZM198.32 52.9705C196.92 53.4168 196.251 55.2529 196.829 57.0788C197.407 58.9046 199.01 60.0205 200.41 59.5741C201.81 59.1278 202.479 57.2918 201.901 55.4659C201.323 53.64 199.72 52.5242 198.32 52.9705Z" fill="#E6E7E8"/>
<path d="M187.609 61.3492C190.013 60.5377 192.711 62.0796 193.624 64.788C194.547 67.5065 193.34 70.3671 190.936 71.1786C188.532 71.9901 185.834 70.4482 184.921 67.7398C183.998 65.0314 185.195 62.1709 187.609 61.3492ZM188.542 63.2461C187.244 63.5707 186.524 65.2039 186.939 66.8877C187.366 68.5716 188.755 69.6773 190.064 69.3527C191.362 69.0281 192.082 67.3949 191.666 65.711C191.24 64.0272 189.841 62.9215 188.542 63.2461Z" fill="#E6E7E8"/>
<path d="M206.253 158.791C203.89 148.931 199.832 141.364 194.953 130.763C190.378 120.832 186.645 111.47 185.874 100.88C184.789 86.0087 191.94 71.9697 205.269 64.9806C214.551 60.1116 225.587 60.6594 233.976 67.1413C245.997 76.433 245.429 95.4932 232.8 103.831C227.687 107.209 220.769 108.092 215.373 104.755C210.93 102.006 208.526 95.97 210.321 90.9386C211.305 88.1694 213.415 86.1 216.265 85.4204C216.316 85.4103 216.377 85.4407 216.397 85.4914V85.5016C216.417 85.5523 216.387 85.6131 216.336 85.6334C211.569 87.6622 210.28 91.8009 212.837 96.2439C214.815 99.6826 218.477 101.62 222.412 101.61C232.364 101.59 238.693 91.2937 236.949 82.073C235.569 74.7694 229.797 69.1396 222.352 67.689C217.422 66.7254 212.593 67.3137 207.876 69.4439C198.331 73.755 192.143 83.6148 190.419 93.6572C189.029 101.813 190.652 110.841 193.462 118.794C195.643 124.981 198.24 131.514 201.252 138.381C201.597 139.162 202.328 141.069 203.444 144.102C205.239 148.971 206.253 153.79 206.487 158.75C206.487 158.811 206.446 158.862 206.385 158.872C206.324 158.882 206.274 158.851 206.253 158.791Z" fill="#E6E7E8"/>
<path d="M217.664 167.19C217.624 167.24 217.543 167.22 217.532 167.149C216.579 160.079 213.657 153.506 210.503 146.324C210.432 146.172 208.048 140.998 203.351 130.814C200.653 124.951 198.614 119.778 197.133 114.29C196.514 112.018 195.997 109.299 195.561 106.134C193.826 93.4442 198.279 78.9284 211.162 73.9478C215.818 72.1523 221.59 72.1523 225.779 74.9419C229.928 77.7111 231.835 81.5861 231.5 86.587C231.328 89.0925 230.05 91.9835 228.062 93.6673C225.526 95.8077 222.574 96.3859 219.196 95.3918C218.557 95.2092 218.08 94.9353 217.756 94.5904C217.624 94.4484 217.735 94.2253 217.928 94.2455C219.287 94.3876 220.596 94.0528 221.854 93.2413C224.511 91.527 225.881 89.2345 225.942 86.3537C226.033 82.2556 223.71 79.6384 219.815 78.8777C215.331 78.0053 210.665 79.7297 207.5 82.9859C203.382 87.2362 201.373 93.3123 201.17 99.1957C200.897 106.946 202.834 114.138 205.684 121.401C209.346 130.702 211.659 136.586 212.623 139.041C214.783 144.528 216.376 149.834 217.39 154.946C218.212 159.054 218.344 163.041 217.766 166.906C217.745 167.038 217.715 167.129 217.664 167.19Z" fill="#E6E7E8"/>
<path d="M182.648 74.8513C184.667 74.9426 186.209 77.0018 186.087 79.4363C185.976 81.8708 184.241 83.7779 182.233 83.6764C180.214 83.5851 178.672 81.5259 178.794 79.0914C178.905 76.6569 180.64 74.76 182.648 74.8513ZM182.598 76.2106C181.37 76.1599 180.315 77.4988 180.234 79.203C180.153 80.9072 181.086 82.3374 182.314 82.3983C183.541 82.449 184.596 81.11 184.677 79.4059C184.758 77.6916 183.825 76.2715 182.598 76.2106Z" fill="#E6E7E8"/>
<path d="M207.613 102.462C208.171 106.905 209.124 111.145 210.504 115.203C212.066 119.828 213.912 124.657 216.073 129.516C219.106 136.332 221.419 141.668 223.032 145.523C224.685 149.499 225.923 153.526 226.754 157.604C227.921 163.416 227.17 169.645 222.859 173.925C222.778 174.006 222.626 173.915 222.677 173.804C223.945 170.649 224.452 167.271 224.178 163.65C223.934 160.373 223.376 157.239 222.494 154.236C221.358 150.361 220.364 147.054 218.933 143.22C215.86 134.963 212.391 126.381 210.017 118.266C208.567 113.275 207.43 107.828 207.481 102.442C207.481 102.411 207.512 102.391 207.532 102.391C207.572 102.381 207.613 102.411 207.613 102.462Z" fill="#E6E7E8"/>
<path d="M228.561 113.063C226.938 116.856 226.329 120.65 226.755 124.444C227.486 131.037 230.194 137.235 233.308 143.109C235.317 146.882 237.122 150.392 238.715 153.638C240.541 157.34 241.697 160.982 242.194 164.553C243.371 173.013 240.044 182.416 231.614 185.915C225.66 188.391 218.65 186.92 213.954 182.629C209.48 178.551 206.711 173.286 205.636 166.835C205.575 166.49 205.585 166.176 205.666 165.912C205.687 165.841 205.788 165.841 205.808 165.912C208.08 172.86 212.818 180.276 220.395 181.858C229.839 183.846 236.99 177.516 237.264 168.093C237.437 162.027 235.317 155.991 232.872 150.605C229.991 144.265 227.688 139.061 226.076 132.863C224.483 126.757 224.351 118.145 228.449 113.012C228.47 112.992 228.5 112.981 228.53 113.002C228.561 113.002 228.581 113.032 228.561 113.063Z" fill="#E6E7E8"/>
<path d="M268.852 62.7594C273.153 63.5911 275.557 67.5574 275.598 71.7062C275.638 75.4188 274.533 78.7359 272.311 81.6573C266.002 89.9042 256.365 85.2279 256.213 75.784C256.162 72.4264 257.116 69.4746 259.073 66.9082C261.488 63.7433 264.967 62.0189 268.852 62.7594ZM268.355 67.2023C265.738 66.2691 262.522 68.5819 261.163 72.3757C259.804 76.1695 260.828 80.0038 263.435 80.9371C266.052 81.8703 269.268 79.5575 270.627 75.7637C271.987 71.9699 270.972 68.1356 268.355 67.2023Z" fill="#DB6F2E"/>
<path d="M286.836 69.3123C290.295 70.4281 292.05 74.6175 290.741 78.6649C289.433 82.7122 285.568 85.0859 282.099 83.9701C278.64 82.8542 276.885 78.6649 278.193 74.6175C279.502 70.5701 283.377 68.1863 286.836 69.3123ZM285.771 72.2641C284.127 71.8076 282.281 73.3191 281.632 75.6319C280.993 77.9446 281.804 80.1966 283.438 80.6429C285.081 81.0994 286.927 79.5879 287.576 77.2751C288.225 74.9624 287.414 72.7206 285.771 72.2641Z" fill="#DB6F2E"/>
<path d="M300.521 77.3671C303.321 78.4322 304.619 81.8506 303.422 84.9851C302.225 88.1296 298.979 89.8034 296.18 88.7383C293.38 87.6732 292.081 84.2547 293.278 81.1203C294.475 77.9757 297.721 76.302 300.521 77.3671ZM299.547 79.6494C298.147 79.1929 296.535 80.2986 295.936 82.1245C295.338 83.9504 295.977 85.8067 297.377 86.2632C298.776 86.7196 300.389 85.614 300.988 83.7881C301.586 81.9622 300.937 80.1059 299.547 79.6494Z" fill="#DB6F2E"/>
<path d="M310.29 88.119C312.684 88.9711 313.85 91.852 312.887 94.5604C311.923 97.2586 309.204 98.7599 306.8 97.9078C304.406 97.0557 303.24 94.1749 304.203 91.4665C305.167 88.7581 307.886 87.267 310.29 88.119ZM309.539 90.0159C308.261 89.6406 306.821 90.6956 306.313 92.3693C305.816 94.0532 306.455 95.7168 307.734 96.1022C309.012 96.4775 310.452 95.4226 310.959 93.7489C311.456 92.065 310.827 90.3913 309.539 90.0159Z" fill="#DB6F2E"/>
<path d="M291.543 185.215C291.493 184.729 291.493 184.221 291.543 183.684C292.243 175.67 294.81 169.016 298.248 161.063C301.687 153.1 304.609 146.213 306.435 138.29C307.814 132.275 308.575 126.554 307.753 120.975C305.593 106.398 293.805 92.6532 277.92 94.0328C271.195 94.611 265.748 98.1005 262.563 104.065C259.357 110.06 260.179 117.455 264.399 122.75C267.746 126.96 273.234 129.262 278.58 127.883C283.185 126.696 286.583 122.344 286.218 117.739C286.025 115.254 284.443 113.438 281.501 112.271C281.45 112.251 281.42 112.2 281.44 112.15C281.45 112.099 281.511 112.068 281.562 112.079C283.195 112.393 284.575 113.194 285.721 114.483C288.997 118.175 288.947 123.886 286.218 127.873C282.526 133.269 275.526 134.73 269.531 132.64C266.326 131.524 263.567 129.78 261.284 127.406C256.223 122.162 254.295 114.209 255.847 107.21C258.404 95.666 267.665 88.9609 279.219 88.5146C287.09 88.2102 295.56 92.146 301.15 97.5527C303.777 100.099 305.998 103.101 307.834 106.56C311.527 113.549 312.896 121.076 311.943 129.13C310.867 138.097 307.966 146.547 304 155.028C300.409 162.717 298.127 167.636 297.143 169.787C295.134 174.169 293.308 179.322 291.665 185.226C291.614 185.266 291.543 185.256 291.543 185.215Z" fill="#DB6F2E"/>
<path d="M280.425 193.889C280.414 193.95 280.374 193.99 280.313 193.99C280.252 193.99 280.201 193.95 280.191 193.889C279.846 191.809 279.694 189.304 279.917 186.94C281.195 172.881 288.134 159.095 292.739 146.852C295.336 139.964 297.05 132.803 296.847 125.408C296.685 119.24 294.393 112.992 289.666 108.914C286.217 105.932 282.332 104.816 278.02 105.567C273.912 106.277 271.64 109.715 272.076 113.773C272.482 117.577 276.215 121.35 280.181 120.924C280.323 120.914 280.414 121.066 280.323 121.178C279.522 122.223 277.168 122.547 275.829 122.547C271.133 122.557 267.471 119.22 266.649 114.676C265.817 110.091 266.994 106.236 270.149 103.092C274.064 99.2064 281.266 98.3645 286.389 100.373C291.015 102.189 294.666 104.978 297.334 108.762C305.693 120.6 303.015 135.207 298.41 148.069C297.101 151.711 294.869 156.884 293.003 160.911C290.102 167.17 287.677 172.526 285.74 176.969C284.117 180.671 282.768 184.293 281.682 187.853C281.074 189.953 280.648 191.961 280.425 193.889Z" fill="#DB6F2E"/>
<path d="M315.858 101.59C317.877 101.732 319.378 103.812 319.216 106.236C319.043 108.66 317.268 110.517 315.249 110.375C313.231 110.233 311.73 108.153 311.892 105.729C312.054 103.304 313.829 101.448 315.858 101.59ZM315.757 102.848C314.509 102.787 313.434 104.116 313.353 105.81C313.271 107.504 314.215 108.934 315.463 108.995C316.71 109.056 317.785 107.727 317.867 106.033C317.948 104.329 317.004 102.909 315.757 102.848Z" fill="#DB6F2E"/>
<path d="M290.346 128.978C290.356 128.938 290.387 128.897 290.437 128.907C290.468 128.907 290.488 128.938 290.488 128.958C290.539 134.365 289.413 139.822 287.952 144.833C285.579 152.968 282.099 161.581 279.016 169.868C277.575 173.723 276.581 177.04 275.445 180.925C274.562 183.938 274.004 187.082 273.761 190.369C273.497 194 273.994 197.398 275.272 200.553C275.313 200.665 275.171 200.756 275.09 200.675C270.769 196.384 270.018 190.135 271.185 184.303C272.006 180.215 273.254 176.167 274.907 172.181C276.52 168.306 278.843 162.95 281.876 156.123C284.037 151.254 285.883 146.416 287.455 141.77C288.825 137.692 289.788 133.431 290.346 128.978Z" fill="#DB6F2E"/>
<path d="M269.512 139.701C273.59 144.823 273.458 153.436 271.855 159.532C270.232 165.73 267.929 170.923 265.038 177.253C262.594 182.629 260.463 188.665 260.626 194.721C260.889 204.134 268.031 210.464 277.464 208.496C285.032 206.924 289.779 199.519 292.061 192.581C292.092 192.51 292.183 192.51 292.203 192.581C292.274 192.854 292.285 193.159 292.234 193.504C291.159 199.955 288.379 205.21 283.906 209.277C279.199 213.558 272.2 215.019 266.256 212.544C257.836 209.034 254.529 199.641 255.716 191.191C256.213 187.63 257.38 183.999 259.206 180.286C260.808 177.04 262.614 173.53 264.622 169.767C267.747 163.904 270.455 157.716 271.196 151.123C271.622 147.339 271.023 143.545 269.4 139.752C269.39 139.721 269.4 139.691 269.431 139.67C269.461 139.67 269.491 139.67 269.512 139.701Z" fill="#DB6F2E"/>
</svg>
